<?xml version="1.0" encoding="UTF-8"?>
<svg width="170px" height="179px" viewBox="0 0 170 179" version="1.1" xmlns="http://www.w3.org/2000/svg" xmlns:xlink="http://www.w3.org/1999/xlink">
    <title>logo-app-apeh</title>
    <g id="marketing-website" stroke="none" stroke-width="1" fill="none" fill-rule="evenodd">
        <g id="landing-page" transform="translate(-635.000000, -81.000000)" fill="#000000">
            <g id="header" transform="translate(617.000000, 81.000000)">
                <g id="logo-app-apeh" transform="translate(18.000000, 0.000000)">
                    <path d="M51.2641711,40.9183289 C25.1096711,51.9535658 6.91139474,75.5616447 6.91139474,103.115513 C6.91139474,141.34225 41.9381053,171.974684 84.6389737,171.974684 C127.339842,171.974684 162.366553,141.34225 162.366553,103.115513 C162.366553,82.2820132 151.962776,63.7041447 135.580145,51.1096053 C136.603276,50.5656053 137.569816,49.92475 138.462092,49.1924079 C139.420355,48.4054868 140.266105,47.5346842 140.990842,46.5992368 C158.345382,60.4781711 169.277947,80.6629868 169.277947,103.115513 C169.277947,144.934395 131.352513,178.886079 84.6389737,178.886079 C37.9254342,178.886079 0,144.934395 0,103.115513 C0,78.5259079 13.1125921,56.6565263 33.4096974,42.8133816 C39.6478026,42.8585658 46.3764474,41.90925 49.0226316,41.4296711 C49.8712895,41.276 50.6054211,41.0990658 51.2641711,40.9183289 Z" id="Fill-1"></path>
                    <path d="M116.135724,54.7263553 C125.422868,68.8309868 130.851908,85.8461974 130.851908,104.156987 C130.851908,134.892316 115.555711,161.977789 92.3838158,177.788013 C91.8586053,178.146355 91.14125,178.010803 90.7829079,177.485592 C90.4247895,176.960382 90.5601184,176.24325 91.0853289,175.884908 C113.656855,160.48425 128.548184,134.096 128.548184,104.156987 C128.548184,85.8399342 122.974197,68.8517895 113.477908,54.8965789 C114.381592,54.8500526 115.267382,54.7925658 116.135724,54.7263553 Z" id="Fill-2"></path>
                    <path d="M162.785737,126.146934 C145.310632,133.590921 116.158092,138.448447 83.1778684,138.448447 C52.1421316,138.448447 24.4958816,134.144539 6.7745,127.433342 C6.17994737,127.208316 5.51448684,127.508053 5.28923684,128.102605 C5.06421053,128.697158 5.36417105,129.362842 5.95872368,129.587868 C23.8702368,136.371092 51.8090658,140.752171 83.1778684,140.752171 C116.535,140.752171 146.013895,135.795553 163.688526,128.266566 C164.273461,128.017382 164.545908,127.340289 164.296947,126.755355 C164.047763,126.170421 163.370447,125.897974 162.785737,126.146934 Z" id="Fill-3"></path>
                    <path d="M61.9538158,74.6022632 C61.9538158,70.4280921 58.5647763,67.0390526 54.3903816,67.0390526 L28.3969342,67.0390526 C24.2225395,67.0390526 20.8335,70.4280921 20.8335,74.6022632 L20.8335,89.7291316 C20.8335,93.9035263 24.2225395,97.2925658 28.3969342,97.2925658 L54.3903816,97.2925658 C58.5647763,97.2925658 61.9538158,93.9035263 61.9538158,89.7291316 L61.9538158,74.6022632 Z M56.1941711,74.6022632 L56.1941711,89.7291316 C56.1941711,90.72475 55.386,91.5329211 54.3903816,91.5329211 C54.3903816,91.5329211 28.3969342,91.5329211 28.3969342,91.5329211 C27.4013158,91.5329211 26.5931447,90.72475 26.5931447,89.7291316 C26.5931447,89.7291316 26.5931447,74.6022632 26.5931447,74.6022632 C26.5931447,73.6068684 27.4013158,72.7984737 28.3969342,72.7984737 C28.3969342,72.7984737 54.3903816,72.7984737 54.3903816,72.7984737 C55.386,72.7984737 56.1941711,73.6068684 56.1941711,74.6022632 Z" id="Fill-4"></path>
                    <path d="M115.032737,74.6022632 C115.032737,70.4280921 111.643697,67.0390526 107.469303,67.0390526 L81.4758553,67.0390526 C77.3014605,67.0390526 73.9124211,70.4280921 73.9124211,74.6022632 L73.9124211,89.7291316 C73.9124211,93.9035263 77.3014605,97.2925658 81.4758553,97.2925658 L107.469303,97.2925658 C111.643697,97.2925658 115.032737,93.9035263 115.032737,89.7291316 L115.032737,74.6022632 Z M109.273316,74.6022632 L109.273316,89.7291316 C109.273316,90.72475 108.464921,91.5329211 107.469303,91.5329211 C107.469303,91.5329211 81.4758553,91.5329211 81.4758553,91.5329211 C80.4802368,91.5329211 79.6720658,90.72475 79.6720658,89.7291316 C79.6720658,89.7291316 79.6720658,74.6022632 79.6720658,74.6022632 C79.6720658,73.6068684 80.4802368,72.7984737 81.4758553,72.7984737 C81.4758553,72.7984737 107.469303,72.7984737 107.469303,72.7984737 C108.464921,72.7984737 109.273316,73.6068684 109.273316,74.6022632 Z" id="Fill-5"></path>
                    <path d="M36.0326184,97.2925658 C35.8585921,99.5560263 35.7697895,101.845882 35.7697895,104.156987 C35.7697895,134.096 50.6611184,160.48425 73.2326447,175.884908 C73.7578553,176.24325 73.8934079,176.960382 73.5350658,177.485592 C73.1767237,178.010803 72.4593684,178.146355 71.9341579,177.788013 C48.7622632,161.977789 33.4660658,134.892316 33.4660658,104.156987 C33.4660658,101.845882 33.5524079,99.5553553 33.7221842,97.2925658 L36.0326184,97.2925658 Z M41.4064079,67.0390526 C45.9554737,56.9614079 52.3009474,47.91025 60.0176053,40.3235526 C60.7298158,40.5438816 61.5241184,40.8313158 62.4235526,41.1983816 C54.7968158,48.5036842 48.4978684,57.2593553 43.94075,67.0390526 L41.4064079,67.0390526 Z" id="Fill-6"></path>
                    <path d="M61.9538158,80.2294868 C65.8488289,80.4858289 69.8415921,80.6815526 73.9124211,80.8124079 L73.9124211,83.1170263 C69.8427105,82.9863947 65.8501711,82.7915658 61.9538158,82.5363421 L61.9538158,80.2294868 Z M115.032737,79.8803158 C132.710724,78.4635 148.216513,75.7821974 159.935776,72.2455263 C160.544421,72.0618816 161.187737,72.4068026 161.371382,73.0154474 C161.55525,73.6240921 161.210105,74.2674079 160.601461,74.4510526 C148.718684,78.0371579 132.979145,80.7598421 115.032737,82.1896316 L115.032737,79.8803158 Z M20.8335,76.8854079 C16.3378947,75.8493026 12.2176316,74.7082895 8.53176316,73.4778026 C7.92871053,73.2764868 7.60235526,72.6235526 7.80367105,72.0205 C8.00498684,71.4174474 8.65814474,71.0913158 9.26119737,71.2926316 C12.7441942,72.4553421 16.6188421,73.5364079 20.8339474,74.5228553 C20.8337237,74.5490263 20.8335,74.5756447 20.8335,74.6022632 L20.8335,76.8854079 Z" id="Fill-7"></path>
                    <path d="M56.5921053,23.3213158 L62.2065789,15.8162632 C72.0021579,3.88248684 88.6473947,-2.02255263 105.030026,0.623855263 C108.004132,1.10432895 111.031697,1.59330263 114.001329,2.07310526 C129.673987,4.60498684 141.582934,15.9952105 143.23775,30.0358684 C143.481342,32.1029342 143.7265,34.1834211 143.966737,36.2218553 C144.538474,41.0722237 142.498921,45.8778553 138.462092,49.1924079 C137.088224,50.3202237 135.537868,51.2306184 133.877013,51.9061447 C132.158,52.9822895 130.021368,53.2037368 127.792355,53.4596316 C115.083289,54.9182763 95.7469079,58.4739605 71.0834868,45.3962632 C55.0782105,36.9094605 56.5330526,40.0685526 49.0226316,41.4296711 C44.8433158,42.1870658 30.4825658,44.1158947 23.9559079,41.4495789 C16.6783421,38.4763684 15.7970263,32.7894211 15.7968026,32.78875 C14.0138158,25.4494474 21.10975,22.05325 24.7844342,21.0791053 C31.4728158,19.3059605 36.5904868,20.6125 40.4906447,21.1674605 L56.5921053,23.3213158 Z M66.7272368,19.3880526 L61.2038026,26.7714211 C59.9536316,28.4425658 57.8970789,29.3066579 55.8284474,29.0299605 C55.8284474,29.0299605 39.7269868,26.8763289 39.6791184,26.8696184 C36.3464474,26.3951842 31.9752105,25.1311447 26.2605263,26.6463816 C25.3107632,26.8980263 24.0024342,27.3890132 22.8542632,28.2041184 C21.9103158,28.8745 21.0146842,29.8698947 21.3936053,31.4289737 C21.3936053,31.4294211 22.0561579,34.4518421 26.1341447,36.1178421 C28.1833158,36.9548684 31.2328026,37.0805789 34.3446974,37.0532895 C39.8945263,37.0045263 45.6552895,36.1865132 47.9954737,35.7624079 C52.3327105,34.9763816 54.1181579,33.8483421 57.0929342,33.9648816 C60.0972368,34.0827632 64.4478947,35.3586579 73.7815658,40.3078947 C96.9765,52.6069474 115.183276,49.1094211 127.135618,47.7375658 C128.467882,47.5845658 129.793211,47.6675526 130.820816,47.0244605 C131.102434,46.8479737 131.399039,46.6963158 131.706829,46.5710526 C132.829053,46.1145132 133.879026,45.5029605 134.807316,44.7408684 C137.261355,42.7259211 138.594513,39.8446447 138.246908,36.8960395 C138.006671,34.8576053 137.761513,32.7768947 137.517921,30.7100526 C136.146513,19.0753421 126.069763,9.85686842 113.082882,7.75893421 C110.11325,7.27913158 107.085684,6.79015789 104.111579,6.30968421 C89.8371711,4.00372368 75.2952368,9.01715789 66.7272368,19.3880526 Z" id="Fill-8"></path>
                    <path d="M21.5123816,35.3353947 C21.5123816,35.3353947 35.8811842,27.1082895 78.9043816,45.8100789 C99.2891711,54.6713289 119.622961,52.3602237 131.875711,48.5790658 C137.379013,46.8808553 141.29975,44.8426447 143.029276,43.3815395 C144.000513,42.5610658 144.123092,41.1064474 143.302618,40.1349868 C142.482145,39.16375 141.027303,39.0411711 140.055842,39.8616447 C138.584447,41.1046579 135.199211,42.7312895 130.517053,44.1762895 C119.003579,47.7292895 99.89625,49.9111053 80.7412763,41.5844605 C34.6898421,21.5662895 19.1328289,31.3896053 19.1328289,31.3896053 C18.0439342,32.0463421 17.6931974,33.4633816 18.3497105,34.5522763 C19.0064474,35.6411711 20.4234868,35.9919079 21.5123816,35.3353947 Z" id="Fill-9"></path>
                </g>
            </g>
        </g>
    </g>
</svg>