<?xml version="1.0" encoding="UTF-8"?>
<svg width="801px" height="202px" viewBox="0 0 801 202" version="1.1" xmlns="http://www.w3.org/2000/svg" xmlns:xlink="http://www.w3.org/1999/xlink">
    <title>logo-AECOM-IIS</title>
    <g id="marketing-website" stroke="none" stroke-width="1" fill="none" fill-rule="evenodd">
        <g id="landing-page" transform="translate(-321.000000, -851.000000)">
            <g id="case-study-AECOMIIS" transform="translate(0.000000, 552.000000)">
                <g id="logo-AECOM-IIS" transform="translate(321.000000, 299.000000)">
                    <g id="aecom-logo-dark" transform="translate(0.000000, 41.648590)" fill="#000000" fill-rule="nonzero">
                        <path d="M65.5789242,30.1927128 L65.7989877,30.1927128 L74.1614009,70.024207 L48.8540979,70.024207 L65.5789242,30.1927128 Z M54.135622,2.90483825 L0,117.777987 L28.828319,117.777987 L38.2910497,95.33151 L79.6629885,95.33151 L84.284322,117.777987 L111.572197,117.777987 L85.1645761,2.90483825 L54.135622,2.90483825 Z" id="Shape"></path>
                        <path d="M189.254613,73.7652866 L118.394165,73.7652866 L122.355308,47.1376026 L193.43582,47.1376026 L189.254613,73.7652866 Z M205.759376,29.5325222 L124.99607,29.5325222 L128.957213,2.90483825 L209.720519,2.90483825 L205.759376,29.5325222 Z M196.516709,90.9302399 L115.753403,90.9302399 L111.79226,117.777987 L192.555566,117.777987 L196.516709,90.9302399 Z" id="Shape"></path>
                        <path d="M285.422365,88.2894778 C277.720142,91.8104939 266.27684,92.4706844 260.555189,92.4706844 C242.289918,92.4706844 230.406489,80.1471282 230.846616,61.6617938 C231.506806,42.2962055 246.251061,28.2121412 266.27684,28.2121412 C275.739571,28.2121412 284.101984,31.2930303 291.584143,37.6748719 L297.08573,10.1669339 C285.642428,3.34496526 276.179698,0.704203213 264.076205,0.704203213 C231.066679,0.704203213 203.778805,28.2121412 202.458424,62.9821749 C201.358106,96.651891 223.144393,120.198686 255.493728,120.198686 C261.215379,120.198686 273.318872,119.538495 281.021095,116.017479 L285.422365,88.2894778 Z" id="Path"></path>
                        <path d="M373.007639,64.3025559 C377.188846,44.9369675 369.92675,29.7525857 355.182496,26.6716967 C339.11786,23.3707441 324.373605,35.6943004 319.972335,56.1602062 C315.791128,75.5257946 323.053224,90.7101764 337.797479,93.7910654 C353.862114,97.092018 368.606369,84.7684618 373.007639,64.3025559 M354.082178,0.924266717 C384.891069,3.12490176 403.81653,28.2121412 400.295514,61.4417303 C396.774498,95.9917005 369.046496,121.519067 337.577415,119.318432 C306.768525,117.117797 287.843063,92.0305574 291.364079,58.8009683 C294.885095,24.2509981 322.83316,-1.27636832 354.082178,0.924266717" id="Shape"></path>
                        <polygon id="Path" points="499.984281 2.90483825 466.754692 67.6035084 453.330818 2.90483825 427.583388 2.90483825 391.933101 117.777987 420.321293 117.777987 439.906945 50.4385551 452.010437 117.777987 466.534629 117.777987 500.204345 50.4385551 499.764218 117.777987 527.932346 117.777987 525.951775 2.90483825"></polygon>
                    </g>
                    <text id="IIS" font-family="DINAlternate-Bold, DIN Alternate" font-size="173.535792" font-weight="bold" fill="#231F20">
                        <tspan x="610.845987" y="163">IIS</tspan>
                    </text>
                </g>
            </g>
        </g>
    </g>
</svg>