<?xml version="1.0" encoding="UTF-8"?>
<svg width="200px" height="35px" viewBox="0 0 200 35" version="1.1" xmlns="http://www.w3.org/2000/svg" xmlns:xlink="http://www.w3.org/1999/xlink">
    <title>type-app-apeh</title>
    <g id="marketing-website" stroke="none" stroke-width="1" fill="none" fill-rule="evenodd">
        <g id="landing-page" transform="translate(-620.000000, -280.000000)" fill="#000000">
            <g id="header" transform="translate(617.000000, 81.000000)">
                <g id="type-app-apeh" transform="translate(3.000000, 199.000000)">
                    <path d="M10.6807328,27.6360603 L9.76656897,33.0435603 C9.61932759,33.9145776 8.8649569,34.5521207 7.98156897,34.5521207 L1.81034483,34.5521207 C1.21981034,34.5521207 0.666448276,34.2640948 0.327612069,33.780431 C-0.0111637931,33.2967672 -0.0928103448,32.6782931 0.108922414,32.1233017 L11.3528534,1.19187069 C11.613,0.476301724 12.2929655,0 13.0542759,0 L16.9790431,0 C17.7404138,0 18.4203793,0.476301724 18.6804655,1.19187069 L29.9243966,32.1233017 C30.1261897,32.6782931 30.0445431,33.2967672 29.7057672,33.780431 C29.366931,34.2640948 28.8135086,34.5521207 28.2229741,34.5521207 L22.0729914,34.5521207 C21.1916552,34.5521207 20.438431,33.9174138 20.2888966,33.0488707 L19.3572328,27.6360603 L10.6807328,27.6360603 Z M12.8525431,19.8571897 L17.2020172,19.8571897 L15.0273103,11.5327414 L12.8525431,19.8571897 Z" id="Fill-1"></path>
                    <path d="M100.294914,27.6360603 L99.3812931,33.0435603 C99.2340517,33.9145776 98.4791379,34.5521207 97.5956897,34.5521207 L91.4248276,34.5521207 C90.8340517,34.5521207 90.2806897,34.2640948 89.9421552,33.780431 C89.6030172,33.2967672 89.5215517,32.6782931 89.7231034,32.1233017 L100.967155,1.19187069 C101.227241,0.476301724 101.907328,0 102.668879,0 L106.593707,0 C107.354655,0 108.034741,0.476301724 108.294828,1.19187069 L119.538879,32.1233017 C119.740431,32.6782931 119.658966,33.2967672 119.320431,33.780431 C118.981293,34.2640948 118.427931,34.5521207 117.837155,34.5521207 L111.687414,34.5521207 C110.806379,34.5521207 110.052672,33.9174138 109.903621,33.0488707 L108.971897,27.6360603 L100.294914,27.6360603 Z M102.466724,19.8571897 L106.816379,19.8571897 L104.641552,11.5327414 L102.466724,19.8571897 Z" id="Fill-2"></path>
                    <path d="M55.5040259,6.14624138 C56.2513966,7.6189569 56.644,9.35314655 56.644,11.3570776 C56.644,14.0772414 55.7038276,16.560431 53.8042931,18.7764138 C51.8336121,21.1344483 48.9815345,22.4131552 45.191819,22.4805 C45.1810776,22.480681 45.1703362,22.4808017 45.1596552,22.4808017 L39.8417672,22.4808017 L39.8417672,32.7417759 C39.8417672,33.7416293 39.0312155,34.5521207 38.0314224,34.5521207 L33.3428707,34.5521207 C32.3430776,34.5521207 31.5325259,33.7416293 31.5325259,32.7417759 L31.5325259,1.81034483 C31.5325259,0.810491379 32.3430776,0 33.3428707,0 C33.3428707,0 44.5443793,0 44.5443793,0 C45.8833707,0 47.1755345,0.125456897 48.4211121,0.374560345 C48.4562328,0.38162069 48.4911121,0.389646552 48.52575,0.398758621 C49.8643793,0.750146552 51.2281121,1.45135345 52.6000517,2.53430172 C53.7830517,3.38691379 54.761181,4.58300862 55.5040259,6.14624138 Z M48.0288103,9.45844828 C47.8392672,9.13162069 47.57725,8.87340517 47.2452931,8.68156897 C47.2244138,8.66956034 47.2037759,8.65706897 47.1833793,8.64415517 C46.5120431,8.21962931 45.7277414,8.03443103 44.8392241,8.05416379 C44.8257672,8.05446552 44.8123707,8.05458621 44.7989741,8.05458621 L40.5138276,8.05458621 C40.335569,8.05458621 40.1646121,8.12543103 40.0386121,8.25143103 C39.9125517,8.37749138 39.8417672,8.54844828 39.8417672,8.7267069 C39.8417672,9.95080172 39.8417672,12.5301207 39.8417672,13.7542155 C39.8417672,14.1253362 40.1426466,14.4262759 40.5138276,14.4262759 C41.8981983,14.4263966 44.9392759,14.4263966 44.9392759,14.4263966 C46.0634397,14.4081121 46.9391638,14.1378879 47.4931897,13.47675 C48.0466121,12.8013707 48.334819,12.0552069 48.334819,11.2298103 C48.334819,10.5354224 48.2475603,9.94217241 48.0288103,9.45844828 Z" id="Fill-3"></path>
                    <path d="M82.2837931,6.14624138 C83.0308621,7.6189569 83.4237069,9.35314655 83.4237069,11.3570776 C83.4237069,14.0772414 82.4835345,16.560431 80.5838793,18.7764138 C78.6130172,21.1344483 75.7611207,22.4131552 71.9714655,22.4805 C71.9606034,22.480681 71.9497414,22.4808017 71.9394828,22.4808017 L66.6212931,22.4808017 L66.6212931,32.7417759 C66.6212931,33.7416293 65.8108621,34.5521207 64.8109483,34.5521207 L60.1224569,34.5521207 C59.1226638,34.5521207 58.3121121,33.7416293 58.3121121,32.7417759 L58.3121121,1.81034483 C58.3121121,0.810491379 59.1226638,0 60.1224569,0 C60.1224569,0 71.3239655,0 71.3239655,0 C72.6630172,0 73.955,0.125456897 75.2005172,0.374560345 C75.2355172,0.38162069 75.2705172,0.389646552 75.3055172,0.398758621 C76.6439655,0.750146552 78.0077586,1.45135345 79.3793966,2.53430172 C80.5627586,3.38691379 81.5409483,4.58300862 82.2837931,6.14624138 Z M74.8082759,9.45844828 C74.6187931,9.13162069 74.3568966,8.87340517 74.025,8.68156897 C74.0038793,8.66956034 73.9833621,8.65706897 73.9628448,8.64415517 C73.2918103,8.21962931 72.5073276,8.03443103 71.6190517,8.05416379 C71.6051724,8.05446552 71.5918966,8.05458621 71.5786207,8.05458621 L67.2935345,8.05458621 C67.1149138,8.05458621 66.9441379,8.12543103 66.8180172,8.25143103 C66.6918966,8.37749138 66.6212931,8.54844828 66.6212931,8.7267069 C66.6212931,9.95080172 66.6212931,12.5301207 66.6212931,13.7542155 C66.6212931,14.1253362 66.9224138,14.4262759 67.2935345,14.4262759 C68.6778448,14.4263966 71.7186207,14.4263966 71.7186207,14.4263966 C72.8428448,14.4081121 73.7184483,14.1378879 74.2730172,13.47675 C74.8263793,12.8013707 75.1142241,12.0552069 75.1142241,11.2298103 C75.1142241,10.5354224 75.0273276,9.94217241 74.8082759,9.45844828 Z" id="Fill-4"></path>
                    <path d="M145.73819,6.14624138 C146.485862,7.6189569 146.878103,9.35314655 146.878103,11.3570776 C146.878103,14.0772414 145.937931,16.560431 144.038879,18.7764138 C142.068017,21.1344483 139.216121,22.4131552 135.426466,22.4805 C135.415603,22.480681 135.404741,22.4808017 135.393879,22.4808017 L130.076293,22.4808017 L130.076293,32.7417759 C130.076293,33.7416293 129.265862,34.5521207 128.265948,34.5521207 L123.577155,34.5521207 C122.577241,34.5521207 121.76681,33.7416293 121.76681,32.7417759 L121.76681,1.81034483 C121.76681,0.810491379 122.577241,0 123.577155,0 C123.577155,0 134.778966,0 134.778966,0 C136.118017,0 137.41,0.125456897 138.655517,0.374560345 C138.690517,0.38162069 138.725517,0.389646552 138.759914,0.398758621 C140.098966,0.750146552 141.462759,1.45135345 142.834397,2.53430172 C144.017155,3.38691379 144.995345,4.58300862 145.73819,6.14624138 Z M138.263276,9.45844828 C138.073793,9.13162069 137.811897,8.87340517 137.479397,8.68156897 C137.458879,8.66956034 137.438362,8.65706897 137.417845,8.64415517 C136.746207,8.21962931 135.962328,8.03443103 135.073448,8.05416379 C135.060172,8.05446552 135.046897,8.05458621 135.033621,8.05458621 L130.076293,8.05458621 L130.076293,14.4262155 L135.173621,14.4263966 C136.297845,14.4081121 137.173448,14.1378879 137.727414,13.47675 C138.280776,12.8013707 138.569224,12.0552069 138.569224,11.2298103 C138.569224,10.5354224 138.481724,9.94217241 138.263276,9.45844828 Z" id="Fill-5"></path>
                    <path d="M157.037759,26.4974741 L170.290086,26.4974741 C171.29,26.4974741 172.100431,27.3080259 172.100431,28.307819 L172.100431,32.7417759 C172.100431,33.7416293 171.29,34.5521207 170.290086,34.5521207 L150.539224,34.5521207 C149.53931,34.5521207 148.728879,33.7416293 148.728879,32.7417759 L148.728879,1.81034483 C148.728879,0.810491379 149.53931,0 150.539224,0 L170.290086,0 C171.29,0 172.100431,0.810491379 172.100431,1.81034483 L172.100431,6.24424138 C172.100431,7.24409483 171.29,8.05458621 170.290086,8.05458621 L157.037759,8.05458621 L157.037759,13.2593276 L168.083879,13.2593276 C169.083793,13.2593276 169.894224,14.0698793 169.894224,15.0696724 L169.894224,19.2278534 C169.894224,20.2276466 169.083793,21.0381983 168.083879,21.0381983 L157.037759,21.0381983 L157.037759,26.4974741 Z" id="Fill-6"></path>
                    <path d="M183.011983,21.0381983 L183.011983,32.7417759 C183.011983,33.7416293 182.201552,34.5521207 181.201638,34.5521207 L176.513448,34.5521207 C175.513534,34.5521207 174.703103,33.7416293 174.703103,32.7417759 L174.703103,1.81034483 C174.703103,0.810491379 175.513534,0 176.513448,0 L181.201638,0 C182.201552,0 183.011983,0.810491379 183.011983,1.81034483 L183.011983,13.2593276 L191.632845,13.2593276 L191.632845,1.81034483 C191.632845,0.810491379 192.443276,0 193.44319,0 L198.131379,0 C199.131293,0 199.941724,0.810491379 199.941724,1.81034483 L199.941724,32.7417759 C199.941724,33.7416293 199.131293,34.5521207 198.131379,34.5521207 L193.44319,34.5521207 C192.443276,34.5521207 191.632845,33.7416293 191.632845,32.7417759 L191.632845,21.0381983 L183.011983,21.0381983 Z" id="Fill-7"></path>
                </g>
            </g>
        </g>
    </g>
</svg>