<?xml version="1.0" encoding="UTF-8"?>
<svg width="207px" height="65px" viewBox="0 0 207 65" version="1.1" xmlns="http://www.w3.org/2000/svg" xmlns:xlink="http://www.w3.org/1999/xlink">
    <title>type-app-apeh-chinese</title>
    <g id="marketing-website" stroke="none" stroke-width="1" fill="none" fill-rule="evenodd">
        <g id="landing-page" transform="translate(-617.000000, -332.000000)" fill="#0041FF">
            <g id="header" transform="translate(617.000000, 81.000000)">
                <g id="type-app-apeh-chinese" transform="translate(0.000000, 251.000000)">
                    <path d="M30.4859,9.0475 L30.4859,7.7517 C30.4859,7.2184 30.2909,6.6729 29.9354,6.1041 C29.5273,5.451 28.9733,4.862 28.2868,4.337 C27.3706,3.6499 27.0439,2.9476 27.0439,2.4131 C27.0439,2.0533 27.1485,1.7487 27.3335,1.4917 C27.5531,1.1867 27.9102,0.9267 28.4592,0.8047 C28.9186,0.7027 29.4289,0.6254 29.9904,0.5743 C30.0205,0.5716 30.0508,0.5702 30.081,0.5702 C31.5959,0.5702 32.8448,0.7164 33.8295,0.9941 C34.8106,1.2708 36.0609,1.8768 37.5898,2.8455 C38.4239,3.4015 38.8781,4.2521 38.8781,5.4336 C38.8781,6.0294 38.7635,6.7348 38.5198,7.5473 C38.4366,7.8245 38.3517,8.1053 38.2647,8.3896 C39.1349,8.3449 40.3165,8.2678 41.8094,8.1592 C44.4149,7.9697 46.523,7.8756 48.1337,7.8756 C48.8974,7.8756 49.8709,7.6732 51.0666,7.2889 C51.9374,7.0168 52.647,6.8922 53.1912,6.8922 C54.5005,6.8922 55.7177,7.1306 56.8437,7.6019 C57.9419,8.0616 58.9519,8.6978 59.8727,9.5122 C60.5623,10.0587 60.8644,10.705 60.8644,11.4044 C60.8644,12.0276 60.5549,12.646 59.7536,13.1357 C59.2224,13.4603 58.3757,13.6687 57.1951,13.6687 C56.551,13.6687 55.7582,13.6084 54.8169,13.4846 C54.1896,13.402 52.9485,13.3148 51.0934,13.2215 L51.4299,13.4535 C52.1072,13.8869 52.4351,14.4957 52.4351,15.2678 C52.4351,15.6859 52.2505,16.2682 51.7627,16.9651 L51.4595,17.3655 C51.498,17.3608 51.5368,17.3585 51.5756,17.3585 C51.8139,17.3585 52.1716,17.4074 52.6457,17.5252 C53.7462,17.7672 54.5032,18.1051 54.9445,18.4706 C55.4546,18.893 55.6663,19.3858 55.6663,19.9039 C55.6663,20.9913 54.9868,21.8483 53.3168,22.1201 C52.2979,22.286 51.0895,22.452 49.6915,22.6179 L48.7904,22.7229 L48.8832,23.34 C48.9444,23.3271 49.0056,23.316 49.0665,23.3063 C49.5647,23.2277 50.0499,23.1887 50.522,23.1887 C50.8311,23.1887 51.3468,23.2362 52.0683,23.3393 C52.1074,23.3449 52.1463,23.3528 52.1845,23.363 C53.2231,23.64 53.9365,23.989 54.3519,24.349 C54.838,24.7703 55.0342,25.248 55.0342,25.7341 C55.0342,26.7055 54.4721,27.4956 53.0959,27.8598 C52.2656,28.0796 51.3378,28.2634 50.3122,28.4099 C49.7612,28.4886 49.2747,28.5528 48.8527,28.6025 L48.8527,28.9802 C49.6402,28.8457 50.438,28.7007 51.2463,28.5453 C51.3085,28.5333 51.3717,28.5273 51.4351,28.5273 C51.6433,28.5273 52.1123,28.5737 52.8409,28.6778 C52.8698,28.6819 52.8984,28.6873 52.9267,28.6939 C53.984,28.9406 54.7088,29.2865 55.1317,29.6601 C55.6048,30.078 55.8068,30.5601 55.8068,31.0726 C55.8068,31.7137 55.4924,32.3674 54.6997,32.9299 C54.3694,33.1861 53.92,33.3946 53.3379,33.524 C52.8927,33.6229 51.9782,33.7273 50.5932,33.8262 C49.9025,33.8755 49.3445,33.918 48.9193,33.954 L48.7435,36.0277 C49.0404,35.972 49.3898,35.9018 49.7919,35.8184 C51.1233,35.5421 52.1166,35.4112 52.7698,35.4112 C53.6476,35.4112 54.5385,35.5264 55.4422,35.7588 C56.4021,36.0056 57.1939,36.37 57.8246,36.8363 C58.6364,37.4363 59.0381,38.2327 59.0381,39.2209 C59.0381,40.4841 58.1559,41.4151 56.001,41.4151 C55.9619,41.4151 55.9229,41.4128 55.8841,41.4082 C54.2968,41.2215 52.7094,41.0464 51.122,40.883 C49.5781,40.7241 48.4884,40.6424 47.8527,40.6424 C45.7449,40.6424 43.8663,40.7446 42.2167,40.9508 C40.8396,41.1229 39.5949,41.4172 38.4836,41.8383 C38.2286,42.9693 37.7193,43.6627 37.0465,43.9925 C37.8646,44.3881 38.984,44.9876 40.4008,45.7926 C40.8246,46.0281 41.2275,46.2332 41.4343,46.3364 L43.6844,45.9614 C43.7387,45.9523 43.7937,45.9478 43.8488,45.9478 C44.4574,45.9478 44.809,46.1872 44.9916,46.4002 C45.1708,46.6094 45.2702,46.8598 45.2702,47.1585 C45.2702,47.2243 45.2637,47.29 45.2508,47.3546 C45.1846,47.6856 44.8838,48.2418 44.2217,48.9369 C43.8823,49.2933 43.668,49.7376 43.5662,50.2636 C43.4247,50.9947 43.295,51.6433 43.177,52.2093 C43.0073,53.0239 42.6797,53.5857 42.2763,53.9369 C41.9186,54.2802 41.443,54.4804 40.8283,54.4804 C40.1767,54.4804 39.4818,54.2485 38.7481,53.7147 C37.5101,52.7738 36.3444,51.5872 35.255,50.1512 C34.1636,48.7125 33.3979,47.3686 32.9459,46.1267 C32.7512,45.6863 32.5806,45.2459 32.4338,44.8055 C32.3998,44.7035 32.3824,44.5967 32.3824,44.4892 C32.3824,44.0783 32.5299,43.759 32.7765,43.5124 C33.0144,43.2744 33.4025,43.0728 33.9923,43.0682 C33.896,42.9375 33.8024,42.7943 33.7118,42.6382 C33.2584,41.8573 32.8666,40.9762 32.5391,39.9937 C32.1873,38.9384 32.0312,38.1627 32.0312,37.6756 C32.0312,37.4045 32.0875,37.0635 32.223,36.6569 C32.2318,36.6306 32.2416,36.6047 32.2526,36.5792 C32.6346,35.6877 32.8819,34.8395 32.9881,34.0329 C33.1003,33.1799 33.1551,32.1697 33.1551,31.0024 L33.1551,29.1058 C33.1551,28.8275 33.1491,28.5714 33.1354,28.3375 C32.5346,28.7437 31.955,29.1111 31.3968,29.4404 C30.4479,29.9999 29.596,30.4493 28.8418,30.7899 C27.9319,31.2008 27.2607,31.3702 26.8498,31.3702 C26.5793,31.3702 26.3579,31.3089 26.1775,31.2021 L26.0234,38.5185 C26.0234,39.3895 25.7805,40.3869 25.2634,41.5029 C24.8905,42.3076 24.4534,42.8388 24.0047,43.1532 C24.0826,43.1431 24.1646,43.138 24.2507,43.138 C24.6121,43.138 25.0536,43.2504 25.5566,43.5324 C27.0845,44.2759 28.2696,45.3627 29.1121,46.7845 C29.4066,47.2752 29.8536,48.2752 30.4406,49.7899 C31.1393,51.3585 31.953,52.6583 32.891,53.6835 C33.8105,54.6886 35.0012,55.5064 36.4655,56.1525 C37.429,56.5905 38.6128,56.9252 40.0143,57.1661 C41.4526,57.4133 42.801,57.538 44.0595,57.538 C45.3453,57.538 46.5314,57.4287 47.6176,57.207 C48.0748,57.1137 48.5463,56.9653 48.7891,56.8841 C48.8036,56.7415 48.8195,56.5408 48.8195,56.3604 C48.8195,55.8067 48.7537,55.1892 48.6259,54.5077 C48.4949,53.8088 48.3431,53.1969 48.1684,52.6728 C47.9348,51.972 47.8361,51.4425 47.8361,51.0922 C47.8361,50.632 47.985,50.3026 48.1822,50.0726 C48.4255,49.7888 48.7711,49.6004 49.2576,49.6004 C49.6524,49.6004 50.1212,49.739 50.6346,50.0944 C51.0383,50.3738 51.2806,50.6243 51.406,50.7973 L51.3844,50.7629 C53.8868,54.0116 55.7902,55.951 57.2064,56.4821 C58.5501,57.0047 59.1083,57.8485 59.1083,58.819 C59.1083,59.4059 58.9528,59.9169 58.6594,60.3571 C58.4616,60.6538 58.1901,61.025 57.8473,61.4658 C57.2773,62.2068 56.2239,62.8321 54.6279,63.2311 C53.2447,63.5769 51.689,63.7526 49.96,63.7526 C47.3733,63.7526 44.6187,63.4784 41.6967,62.9275 C38.726,62.3675 36.5375,61.736 35.1241,61.0536 C31.9629,59.5224 29.5763,57.6586 27.9493,55.4892 C26.751,53.9075 25.1838,50.965 23.2667,46.6515 L22.971,45.8792 C22.767,45.3691 22.6888,44.972 22.6888,44.7 C22.6888,44.1902 22.8673,43.8263 23.1222,43.5714 C23.1478,43.5458 23.1744,43.521 23.2025,43.4973 C23.1059,43.5143 23.0102,43.5224 22.9161,43.5224 C22.143,43.5224 21.3603,43.0501 20.8164,41.8227 C20.2906,40.727 19.9827,40.0232 19.8752,39.7192 C19.7697,39.4481 19.6273,38.8467 19.4712,37.9102 C19.4689,37.8968 19.467,37.8833 19.4653,37.8698 C19.412,37.4435 19.5453,36.4375 19.945,34.8653 C20.2681,33.5943 20.441,32.6592 20.441,32.0561 L20.441,30.2297 C20.441,29.6704 20.4203,29.1215 20.3788,28.5829 C19.8712,28.8675 19.2781,29.1857 18.5994,29.5372 C17.5128,30.0999 16.6122,30.5293 15.8982,30.8272 C14.6416,35.9323 13.1169,40.5042 11.3269,44.5433 C9.0497,49.679 6.5828,53.3477 3.9688,55.5743 C3.2629,56.1794 2.7061,56.6051 2.3027,56.8572 C1.6863,57.2425 1.2312,57.3604 0.999998854,57.3604 C0.719,57.3604 0.451,57.2423 0.2616,57.0348 C0.0721,56.8273 -0.0213,56.5497 0.0041,56.2699 C0.0543,55.7179 0.1298,55.191 0.2302,54.6892 C0.2526,54.5768 0.2943,54.4691 0.3532,54.3708 C0.4911,54.1411 0.8352,53.5206 1.3865,52.5099 C4.1604,47.4243 6.3896,41.7371 8.0771,35.4495 C9.763,29.1678 10.6068,22.9323 10.6068,16.7429 C10.6068,14.7497 10.2334,13.2499 9.3791,12.2736 C9.3695,12.2625 9.36,12.2513 9.3508,12.2398 C8.8052,11.5577 8.5698,10.8943 8.5698,10.2804 C8.5698,9.7655 8.742,9.3633 9.0338,9.0544 C9.3687,8.6998 9.9267,8.4375 10.7639,8.4375 C11.151,8.4375 11.6775,8.5122 12.3411,8.6781 C13.9679,9.0848 15.3638,9.6998 16.5167,10.5021 C16.7055,10.628 16.8487,10.7344 16.9773,10.7525 L30.4859,9.0475 Z M12.7818,60.8741 C12.7556,60.8327 12.7291,60.7847 12.7033,60.7298 C12.6375,60.5893 12.5214,60.2579 12.3678,59.7312 C12.1848,59.1038 12.0672,58.4634 12.0149,57.81 C11.9641,57.1755 11.9415,56.8327 11.9415,56.7819 C11.9415,55.1297 12.4903,53.6695 13.5781,52.4188 C14.0642,51.8356 15.0088,50.9089 16.4132,49.6498 C17.331,48.8154 17.9504,48.1399 18.2425,47.5976 L18.2567,47.5719 C18.8329,46.5732 19.323,45.9398 19.6841,45.6401 C20.05,45.3365 20.3958,45.2453 20.6683,45.2453 C21.1125,45.2453 21.5081,45.433 21.7746,45.9305 C21.9078,46.1792 22.0195,46.6068 22.0195,47.2287 C22.0195,47.866 21.9654,48.3568 21.8783,48.7035 C21.8629,50.8373 21.4893,52.8639 20.7602,54.7838 C20.0034,56.7766 19.1696,58.2572 18.2867,59.241 C17.3914,60.2387 16.6675,60.9085 16.1303,61.2666 C15.4239,61.7376 14.8173,61.9263 14.3463,61.9263 C13.754,61.9263 13.1856,61.6383 12.7818,60.8741 Z M48.7875,45.4316 C48.3202,44.9466 48.1873,44.5009 48.1873,44.2083 C48.1873,43.7785 48.3652,43.3734 48.8487,43.0726 C49.2268,42.8373 50.0343,42.6463 51.2946,42.6463 L52.5942,42.6463 C53.0067,42.6463 53.4301,42.6244 53.8644,42.581 C53.8975,42.5777 53.9307,42.5761 53.9639,42.5761 C55.1812,42.5761 56.1698,42.6705 56.9306,42.8481 C57.7869,43.0479 58.6218,43.5061 59.4209,44.2481 C60.1684,44.9422 60.7386,45.6791 61.139,46.4532 C61.5823,47.3104 61.7776,48.0425 61.7776,48.6336 C61.7776,49.5196 61.5317,50.1684 61.1419,50.6113 C60.7134,51.0983 60.0893,51.3897 59.2322,51.3897 C59.0223,51.3897 58.7036,51.3379 58.2838,51.1979 C58.2615,51.1905 58.2394,51.1822 58.2177,51.1732 C56.8174,50.5938 55.32,49.8223 53.7266,48.8566 L53.6802,48.8267 C51.9169,47.6202 50.6642,46.7847 49.9372,46.3301 C49.3629,45.9856 48.9893,45.6739 48.7875,45.4316 Z M38.7376,35.5057 L38.7376,37.4131 L42.3571,36.825 L42.3571,34.9175 L38.7376,35.5057 Z M38.4714,29.0811 C38.5116,29.444 38.5516,29.8154 38.5916,30.1953 C38.6367,30.624 38.6712,31.0114 38.6949,31.3572 C39.3668,31.2957 40.178,31.1771 41.1239,31.0052 C41.4391,30.9422 41.8501,30.8578 42.3571,30.7517 L42.3571,29.6117 C42.2942,29.6134 42.2295,29.6141 42.1629,29.6141 C41.3631,29.6141 40.2624,29.4704 38.8553,29.1688 C38.7395,29.1431 38.6116,29.1139 38.4714,29.0811 Z M35.9721,12.9189 C34.3909,12.9446 32.9805,12.9931 31.7407,13.0654 C32.1393,13.3234 32.5074,13.5957 32.8468,13.883 C33.4941,14.4494 33.7502,15.0526 33.7502,15.619 C33.7502,16.2056 33.3512,16.9821 32.2513,17.7154 C32.2381,17.7242 32.2247,17.7327 32.2111,17.7409 C31.8029,17.9858 31.413,18.2307 31.0417,18.4761 C30.1185,19.6246 29.1063,20.795 27.9994,21.9941 C26.7742,23.2959 25.6258,24.4434 24.5547,25.4365 L24.6129,25.491 C24.9964,25.845 25.3044,26.2299 25.5404,26.6428 C25.7751,27.0535 25.9616,27.5926 26.0789,28.2672 L26.1091,28.4497 C26.2854,28.1692 26.5037,27.8973 26.7647,27.6363 C28.3305,26.0245 29.7583,24.3898 31.039,22.7432 C32.7222,20.5141 34.494,17.7695 36.3557,14.5108 C36.339,14.4173 36.3039,14.2408 36.2578,14.0958 C36.0793,13.5349 35.9945,13.1401 35.9721,12.9189 Z M38.6787,23.095 L37.124,24.8656 C37.3276,25.116 37.5043,25.3734 37.6548,25.6373 C38.2592,25.6195 38.9616,25.5769 39.7618,25.5102 C40.5759,25.4424 41.3899,25.3621 42.2039,25.2693 C42.193,24.8671 42.1744,24.4575 42.1483,24.0404 C42.1337,23.8065 42.1197,23.6067 42.0662,23.4549 C41.603,23.4608 41.0682,23.4286 40.4621,23.3551 C39.8607,23.2822 39.2662,23.1955 38.6787,23.095 Z M24.4528,14.0526 C23.3204,14.2292 21.9627,14.426 20.379,14.6434 C19.8582,14.7128 19.2346,14.7951 18.5081,14.8901 C18.3849,16.2165 18.159,17.9951 17.8293,20.2257 C17.5953,21.8083 17.3653,23.2662 17.1389,24.5995 C18.5148,23.321 19.8741,21.7259 21.2213,19.8186 C22.7482,17.6568 23.8309,15.7376 24.4528,14.0526 Z M43.2534,13.0238 C43.3687,13.1307 43.484,13.2376 43.5994,13.3445 L43.968,13.6927 C44.6328,14.2901 44.919,14.948 44.919,15.619 C44.919,16.3289 44.5682,17.0822 43.7163,17.7921 C43.6767,17.825 43.6347,17.8549 43.5906,17.8814 C43.0705,18.1934 42.6288,18.4866 42.5614,18.5316 C42.1458,18.9478 41.7756,19.3361 41.4515,19.6971 C41.9257,19.6245 42.4585,19.532 43.0126,19.4166 C43.0391,19.4111 43.0657,19.4066 43.0926,19.4033 C43.352,19.3709 43.6857,19.2992 44.0941,19.1911 C44.2753,18.8057 44.4495,18.2444 44.636,17.514 C44.8907,16.5163 45.0263,15.7217 45.0263,15.1273 C45.0263,15.0512 45.0196,14.9518 45.0162,14.9086 C44.7244,14.1995 44.6049,13.6588 44.6049,13.3009 C44.6049,13.1854 44.6142,13.0756 44.6327,12.9715 L43.6699,12.9485 L43.2534,13.0238 Z" id="Fill-1"></path>
                    <path d="M85.8207,6.8719 C87.431,6.8124 89.4469,6.5188 91.8824,5.9998 C93.2717,5.722 94.6611,5.4209 96.0504,5.0968 L96.167,5.0744 C100.184,4.4671 103.174,4 105.128,3.6743 C108.109,3.162 111.066,2.6032 114,1.9977 C114.019,1.9939 114.038,1.9904 114.057,1.9872 C114.505,1.9125 115.136,1.6001 115.976,1.1143 C116.812,0.6317 117.423,0.325 117.804,0.1802 C118.183,0.0359 118.474,0 118.659,0 C119.831,0 121.988,0.8697 125.025,2.8408 C127.118,4.2 128.452,5.3609 129.08,6.2572 C129.54,6.9144 129.712,7.5209 129.712,8.0326 C129.712,8.604 129.559,9.2537 129.202,9.9679 C129.196,9.9796 129.19,9.9913 129.184,10.0029 C128.837,10.6542 128.489,11.2858 128.141,11.8973 C127.961,12.617 127.851,13.3015 127.813,13.951 C127.767,14.7249 127.745,15.7492 127.745,17.0239 L127.745,36.9029 C127.745,38.3738 127.814,40.1434 127.952,42.2109 C128.284,47.1348 128.447,50.2124 128.447,51.4434 C128.447,54.278 128.116,56.7635 127.469,58.9055 C126.36,62.5402 124.467,64.1122 122.311,64.1122 C121.651,64.1122 121.123,63.9002 120.703,63.5403 C120.333,63.2229 120.031,62.7678 119.873,62.133 C119.456,60.4673 118.482,58.7717 116.99,57.0235 C115.263,55.2962 113.56,53.546 111.88,51.7726 C111.527,51.4004 111.389,50.8739 111.514,50.3766 C111.638,49.8793 112.008,49.48 112.494,49.3179 C113.008,49.1467 113.36,49.1004 113.531,49.1004 C114.219,49.1004 115.159,49.2228 116.35,49.4874 L119.445,50.1752 C119.564,49.6976 119.617,49.1363 119.617,48.4931 C119.617,48.4931 119.617,15.4083 119.617,15.4083 C119.617,12.7787 119.404,10.8647 118.897,9.681 C118.26,8.205 117.068,7.4956 115.357,7.4956 C113.284,7.4956 111.009,7.7232 108.531,8.1738 C107.323,8.3934 106.13,8.6079 104.953,8.8171 C106.293,9.8366 106.882,11.0385 106.882,12.3175 C106.882,12.765 106.785,13.4664 106.562,14.4172 C106.407,15.0747 106.32,15.615 106.32,16.0404 L106.32,16.6484 C106.65,16.5165 107.012,16.3682 107.391,16.2071 C108.614,15.6829 109.613,15.4536 110.37,15.4536 C111.627,15.4536 112.912,15.7071 114.223,16.2262 C116.069,16.9568 116.857,18.1617 116.857,19.6229 C116.857,20.2588 116.594,20.9227 115.853,21.4913 C115.098,22.0712 113.486,22.6496 110.933,23.0746 C109.393,23.2947 107.852,23.5005 106.311,23.6916 L106.265,30.4626 C107.456,30.0257 108.424,29.676 109.167,29.4128 C110.494,28.9427 111.577,28.7297 112.407,28.7297 C113.241,28.7297 114.338,28.8766 115.694,29.1896 C116.742,29.4314 117.454,29.7864 117.873,30.1491 C118.451,30.6495 118.683,31.2338 118.683,31.8453 C118.683,32.5442 118.405,33.2477 117.703,33.8827 C116.833,34.67 114.98,35.4508 112.08,36.0535 L112.012,36.066 L106.267,36.9852 L106.32,41.1878 C106.32,45.9026 106.127,49.7363 105.747,52.681 C105.404,55.4572 104.868,57.3893 104.225,58.4997 C103.494,59.7628 102.547,60.2487 101.589,60.2487 C100.874,60.2487 100.186,59.9488 99.6238,59.1767 C99.2027,58.5986 98.8156,57.6046 98.5658,56.1593 C98.2204,54.1607 98.0522,52.4948 98.0522,51.1624 L98.0522,38.6598 C96.9472,38.8435 96.1796,38.995 95.7496,39.1179 C95.1471,39.29 94.4911,39.5278 93.781,39.8291 C93.0103,40.1561 92.3798,40.4246 91.8894,40.6348 C91.1642,40.9456 90.5527,41.0722 90.0693,41.0722 C89.4264,41.0722 88.1869,40.6614 86.4335,39.6386 C86.0947,39.441 85.7911,39.25 85.5215,39.0666 C85.1007,40.9783 84.6068,42.7623 84.0402,44.4201 C82.49,48.8767 80.2385,53.0434 77.2907,56.9092 C76.5294,57.9244 75.8411,58.7212 75.232,59.3049 C74.3487,60.1514 73.5869,60.5113 73.0716,60.5849 C72.4002,60.6808 71.748,60.3142 71.4808,59.6908 L71.2701,59.1991 C71.19,59.0124 71.1488,58.8114 71.1488,58.6083 C71.1488,57.9584 71.3949,56.9692 71.9893,55.6616 C72.283,55.0253 72.6011,54.389 72.9267,53.7853 C74.5251,50.6341 75.9779,46.3267 77.3023,40.8691 C78.6257,35.4159 79.2971,30.9338 79.2971,27.42 C79.2971,27.42 79.2971,14.5653 79.2971,14.5653 C79.2971,12.9855 78.9794,11.4851 78.3415,10.0647 C77.4657,8.6351 76.5899,7.1827 75.7141,5.7077 C75.5765,5.476 75.5039,5.2114 75.5039,4.9419 C75.5039,4.4918 75.6464,4.1153 75.894,3.8002 C76.1948,3.4174 76.774,3.0204 77.7766,3.0204 C78.9381,3.0204 80.4765,3.4792 82.3569,4.5024 C83.817,5.2968 84.9681,6.0916 85.8207,6.8719 Z M87.1976,25.1031 C87.1033,27.2838 86.9654,29.2544 86.7848,31.0153 C86.6616,32.2136 86.5173,33.3752 86.3516,34.5 C86.484,34.4932 86.6228,34.4897 86.7678,34.4897 C86.7678,34.4897 87.5405,34.4897 87.5405,34.4897 C89.3248,34.4897 91.1314,34.3219 92.9603,33.9874 C94.5258,33.701 96.2024,33.327 97.9896,32.8651 L98.0394,25.3446 C96.2697,25.7868 94.5003,26.2159 92.7309,26.6323 C92.6183,26.6588 92.503,26.6722 92.3873,26.6722 C91.6829,26.6722 90.4118,26.3768 88.5966,25.6995 C88.0512,25.4959 87.5858,25.2954 87.1976,25.1031 Z M95.7645,10.4627 C93.1251,10.9444 90.4855,11.4108 87.8459,11.8613 L87.8463,11.8961 C87.8463,12.3969 87.7642,13.349 87.5889,14.7514 C87.4367,15.969 87.3546,16.773 87.3546,17.1644 C87.3546,18.4857 87.3438,19.7545 87.3217,20.9712 C87.7398,20.9042 88.2569,20.8624 88.8751,20.8624 C90.3794,20.8624 91.9941,20.6944 93.7197,20.3626 C95.1404,20.0893 96.5612,19.7504 97.982,19.3456 L97.982,17.7263 C97.982,15.2962 97.7754,13.5198 97.2726,12.4095 C96.9155,11.6209 96.4139,10.971 95.7645,10.4627 Z" id="Fill-2"></path>
                    <path d="M153.188,30.6774 C152.134,31.7069 150.917,32.7865 149.539,33.9141 C147.809,35.3454 146.406,36.3401 145.338,36.9126 C144.377,37.428 143.597,37.6302 143.033,37.6302 C142.709,37.6302 142.393,37.5249 142.133,37.3302 L141.852,37.1195 C141.474,36.8362 141.252,36.3916 141.252,35.9195 C141.252,35.7899 141.293,35.3884 141.614,34.8081 C142.087,33.9545 143.501,31.7731 145.864,28.2662 C149.442,22.9692 152.115,18.7648 153.884,15.6449 C156.596,10.9216 158.04,7.6124 158.04,5.6444 C158.04,5.3759 157.969,5.0801 157.848,4.7476 C157.319,3.2775 157.127,2.4605 157.127,2.3429 C157.127,1.6036 157.419,1.0774 157.871,0.7078 C158.215,0.4257 158.71,0.2107 159.4,0.2107 C161.154,0.2107 163.075,1.0481 165.084,2.8872 C167.134,4.7638 168.065,6.6766 168.065,8.5244 C168.065,9.3022 167.75,10.1529 166.972,11.0085 C166.53,11.4948 166.108,11.9408 165.706,12.3461 C163.022,16.5213 160.358,20.6965 157.714,24.872 C158.21,25.3322 158.688,25.838 159.147,26.3894 C160.393,27.8839 160.9,29.1552 160.9,30.0892 C160.9,30.4772 160.82,30.9976 160.626,31.6442 C160.542,31.923 160.479,32.1274 160.479,32.2612 C160.479,32.2612 160.549,50.946 160.549,50.9517 C160.549,54.6453 160.297,57.597 159.811,59.8083 C159.46,61.4051 158.961,62.5012 158.421,63.1399 C157.8,63.8741 157.076,64.1824 156.309,64.1824 C155.821,64.1824 155.294,64.0248 154.769,63.6112 C154.157,63.1292 153.437,62.1222 152.725,60.5154 C151.787,58.3986 151.367,56.8167 151.367,55.7985 C151.367,55.7569 151.369,55.7154 151.373,55.6739 L151.583,53.1451 L151.597,53.0296 C152.152,49.6081 152.557,46.0709 152.811,42.4182 C153.066,38.7524 153.194,34.9705 153.194,31.0726 C153.194,30.9329 153.192,30.8011 153.188,30.6774 Z M180.929,6.0184 L180.87,4.4502 C180.87,3.4577 180.988,2.6571 181.193,2.0442 C181.596,0.8347 182.412,0.2809 183.564,0.2809 C184.13,0.2809 184.82,0.4653 185.601,0.9304 C186.423,1.4199 187.425,2.2645 188.586,3.4881 C190.703,5.7194 191.597,7.5336 191.597,8.7351 C191.597,9.5512 191.238,10.3751 190.331,11.1005 C190.086,11.2964 189.633,11.6119 188.967,12.0413 C187.283,13.5004 185.555,15.1171 183.782,16.8904 C182.641,18.0308 181.641,19.0703 180.782,20.0095 C182.586,19.9596 184.836,19.7098 187.526,19.2682 C189.338,18.9589 191.402,18.5439 193.72,18.023 C194.122,17.7064 194.543,17.3887 194.992,17.0628 C195.657,16.5932 196.15,16.2971 196.459,16.1562 C196.839,15.9829 197.139,15.9453 197.332,15.9453 C197.749,15.9453 198.306,16.0794 198.962,16.4666 C199.86,16.9969 201.155,18.1279 202.815,19.8954 C204.47,21.6565 205.528,23.0263 206.024,23.9781 C206.365,24.6308 206.488,25.1788 206.488,25.5936 C206.488,26.3744 206.108,27.3042 205.093,28.2412 C204.764,28.5441 204.516,28.7685 204.378,28.9441 L199.998,53.4867 C199.598,55.5348 199.069,57.2815 198.414,58.7415 C197.043,61.7334 195.292,62.9883 193.609,62.9883 C192.105,62.9883 190.998,62.2113 190.455,60.4567 C190.109,59.3381 189.931,58.1136 189.931,56.7819 C189.931,56.7435 189.933,56.7051 189.936,56.6669 C187.154,56.6694 184.233,56.7043 181.173,56.7713 C179.529,56.8073 178.075,56.8885 177.174,56.948 C177.066,57.7043 176.864,58.3633 176.582,58.9279 C175.89,60.3104 174.932,60.8107 174.011,60.8107 C173.324,60.8107 172.63,60.577 171.957,60.0346 C171.278,59.4876 170.577,58.5537 169.919,57.1863 C168.903,55.0721 168.437,53.3601 168.437,52.0756 C168.437,49.9614 168.298,47.4567 168.022,44.5622 C167.359,37.6491 167.032,33.3163 167.032,31.5644 C167.032,30.5097 166.732,29.2589 166.169,27.8033 C165.379,26.1741 164.611,24.5449 163.866,22.9158 C163.777,22.7201 163.73,22.5074 163.73,22.2922 C163.73,21.5937 163.999,21.0988 164.392,20.7496 C164.724,20.4542 165.198,20.2302 165.862,20.2302 C166.356,20.2302 167.14,20.4027 168.19,20.8349 C168.234,20.8532 168.278,20.8737 168.32,20.8962 C168.838,21.1701 169.365,21.4337 169.903,21.6867 C171.989,20.0903 174.067,17.7988 176.149,14.8354 C178.125,11.9814 179.719,9.0428 180.929,6.0184 Z M192.96,37.6022 L192.887,37.6672 C192.004,38.4126 190.122,39.149 187.182,39.7109 C183.851,40.3474 180.096,40.7043 175.919,40.7765 L176.793,51.3644 L190.674,50.8305 C191.089,49.1022 191.503,46.9541 191.918,44.3831 C192.09,43.3568 192.437,41.0965 192.96,37.6022 Z M194.814,24.0902 C194.718,24.0682 194.411,24.0029 194.171,24.0029 C192.511,24.0029 190.179,24.3264 187.172,24.9546 C183.893,25.6398 181.541,25.9697 180.122,25.9697 C178.555,25.9697 177.041,25.5094 175.591,24.5593 C175.375,24.6922 175.163,24.835 174.953,24.9879 C174.738,25.1415 174.437,25.3829 174.049,25.7112 C174.11,27.3484 174.381,29.4662 174.853,32.0606 C175.076,33.2523 175.248,34.2288 175.368,34.99 C176.553,34.8045 177.96,34.5528 179.59,34.2362 C181.758,33.8153 183.174,33.4682 183.821,33.1308 C185.127,32.3483 186.517,31.9609 187.989,31.9609 C189.037,31.9609 190.169,32.1721 191.382,32.6132 C192.497,33.0185 193.196,33.5981 193.571,34.2719 C193.818,33.0379 194.079,31.7639 194.353,30.45 C194.773,28.4375 194.989,26.702 194.989,25.2424 C194.989,24.7556 194.96,24.3655 194.814,24.0902 Z" id="Fill-3"></path>
                </g>
            </g>
        </g>
    </g>
</svg>