<?xml version="1.0" encoding="UTF-8"?>
<svg width="1440px" height="800px" viewBox="0 0 1440 800" version="1.1" xmlns="http://www.w3.org/2000/svg" xmlns:xlink="http://www.w3.org/1999/xlink">
    <title>work-AECOMIIS-show</title>
    <defs>
        <circle id="path-1" cx="17.7407978" cy="17.7407978" r="17.7407978"></circle>
        <circle id="path-3" cx="17.7407978" cy="17.7407978" r="17.7407978"></circle>
        <rect id="path-5" x="0" y="0" width="219" height="122" rx="15.8957548"></rect>
        <rect id="path-7" x="0" y="0" width="61" height="47" rx="3"></rect>
        <filter x="-31.1%" y="-23.4%" width="162.3%" height="180.9%" filterUnits="objectBoundingBox" id="filter-8">
            <feOffset dx="0" dy="8" in="SourceAlpha" result="shadowOffsetOuter1"></feOffset>
            <feGaussianBlur stdDeviation="5" in="shadowOffsetOuter1" result="shadowBlurOuter1"></feGaussianBlur>
            <feColorMatrix values="0 0 0 0 0   0 0 0 0 0.254901961   0 0 0 0 1  0 0 0 0.5 0" type="matrix" in="shadowBlurOuter1"></feColorMatrix>
        </filter>
        <circle id="path-9" cx="17.7407978" cy="17.7407978" r="17.7407978"></circle>
    </defs>
    <g id="marketing-website" stroke="none" stroke-width="1" fill="none" fill-rule="evenodd">
        <g id="landing-page" transform="translate(0.000000, -552.000000)">
            <g id="work-AECOMIIS-show" transform="translate(0.000000, 552.000000)">
                <rect id="area" opacity="0.2" x="0" y="0" width="1440" height="800"></rect>
                <g id="Group-4" transform="translate(446.000000, 404.000000)">
                    <g id="figure-msg" opacity="0.3" transform="translate(48.000000, 0.000000)" fill="#0041FF">
                        <rect id="Rectangle" opacity="0.7" x="0" y="0" width="263" height="152" rx="16.7898913"></rect>
                    </g>
                    <g id="bx-bxs-user" transform="translate(18.000000, 18.000000) scale(-1, 1) translate(-18.000000, -18.000000) ">
                        <mask id="mask-2" fill="white">
                            <use xlink:href="#path-1"></use>
                        </mask>
                        <use id="Mask" fill="#0041FF" xlink:href="#path-1"></use>
                        <g mask="url(#mask-2)" id="Icon" opacity="0.7">
                            <g transform="translate(1.451840, 4.774080)">
                                <g transform="translate(0.322240, 0.406233)">
                                    <path d="M7.98335931,8.1252857 C7.98335931,12.5267778 11.5652265,16.108645 15.9667186,16.108645 C20.3682107,16.108645 23.9500779,12.5267778 23.9500779,8.1252857 C23.9500779,3.7237936 20.3682107,0.141926388 15.9667186,0.141926388 C11.5652265,0.141926388 7.98335931,3.7237936 7.98335931,8.1252857 Z M30.1593574,33.8494435 L31.9334372,33.8494435 L31.9334372,32.0753636 C31.9334372,25.2291895 26.3610524,19.6568047 19.5148783,19.6568047 L12.4185589,19.6568047 C5.57061072,19.6568047 0,25.2291895 0,32.0753636 L0,33.8494435 L30.1593574,33.8494435 Z" id="Icon-Shape" fill="#FFFFFF" fill-rule="nonzero"></path>
                                </g>
                            </g>
                        </g>
                    </g>
                    <g id="figure-folder" opacity="0.4" transform="translate(231.852330, 91.944567)" fill-rule="nonzero">
                        <rect id="ViewBox" x="0" y="0" width="28.7999999" height="28.7999999"></rect>
                        <g id="Icon" transform="translate(0.000000, 3.600000)" fill="#0041FF">
                            <path d="M26.0999999,3.59999998 L15.2999999,3.59999998 L11.6999999,0 L2.69999999,0 C1.20881249,0 0,1.20881249 0,2.69999999 L0,18.8999999 C0,20.3911874 1.20881249,21.5999999 2.69999999,21.5999999 L26.0999999,21.5999999 C27.5911874,21.5999999 28.7999999,20.3911874 28.7999999,18.8999999 L28.7999999,6.29999997 C28.7999999,4.80881248 27.5911874,3.59999998 26.0999999,3.59999998 Z" id="Icon-Path"></path>
                        </g>
                    </g>
                    <g id="figure-doc" opacity="0.5" transform="translate(235.985569, 39.962497) rotate(-298.000000) translate(-235.985569, -39.962497) translate(220.485569, 24.462497)" fill-rule="nonzero">
                        <g id="Icon" transform="translate(4.687199, 1.814400)" fill="#0041FF">
                            <path d="M20.5502035,6.70831784 L14.1950793,0.353193702 C14.0178918,0.176006226 13.7786887,0.0755999897 13.5276732,0.0755999897 L0.982799866,0.0755999897 C0.460096812,0.0755999897 0.0377999949,0.497896807 0.0377999949,1.02059986 L0.0377999949,25.5905965 C0.0377999949,26.1132996 0.460096812,26.5355964 0.982799866,26.5355964 L19.8827973,26.5355964 C20.4055003,26.5355964 20.8277972,26.1132996 20.8277972,25.5905965 L20.8277972,7.37867712 C20.8277972,7.12766153 20.7273909,6.88550531 20.5502035,6.70831784 Z M13.0906107,2.25500594 L18.6483912,7.81278644 L13.0906107,7.81278644 L13.0906107,2.25500594 Z M18.7015475,24.4093467 L2.16404971,24.4093467 L2.16404971,2.2018497 L11.082486,2.2018497 L11.082486,8.58059883 C11.082486,9.26560442 11.6377927,9.82091116 12.3227983,9.82091116 L18.7015475,9.82091116 L18.7015475,24.4093467 Z" id="Icon-Shape"></path>
                        </g>
                        <rect id="ViewBox" x="0" y="0" width="30.2399959" height="30.2399959"></rect>
                    </g>
                    <g id="figure-piechart" opacity="0.9" transform="translate(128.852330, 21.944567)" fill="#FFFFFF" fill-rule="nonzero">
                        <path d="M57.1829954,0.220394796 L57.1829954,46.2629962 L103.225597,46.2629962 C100.807447,21.9940331 81.4519585,2.63854461 57.1829954,0.220394796 Z" id="Icon-Path" fill-opacity="0.7"></path>
                        <path d="M82.7484984,92.5885726 C94.0109025,84.1662083 101.754127,71.2882743 103.225597,56.5529954 L61.1240651,56.5529954 L82.7484984,92.5885726 Z" id="Icon-Path" fill-opacity="0.5" opacity="0.8"></path>
                        <path d="M46.8929962,51.4079958 L46.8929962,0.220394796 C20.9313282,2.8134746 0.587999789,24.7774779 0.587999789,51.4079958 C0.587999789,79.7775236 23.668468,102.857992 52.0379958,102.857992 C59.6127671,102.848069 67.0905539,101.153924 73.9299691,97.8982122 C73.9299691,97.8982122 46.9032862,52.0305408 46.8981412,51.4337208 C46.8975308,51.4249614 46.8958018,51.4163162 46.8929962,51.4079958 Z" id="Icon-Path" fill-opacity="0.8"></path>
                    </g>
                    <g id="figure-meeting" opacity="0.5" transform="translate(111.500000, 77.999971) rotate(-90.000000) translate(-111.500000, -77.999971) translate(97.000000, 63.499971)" fill="#0041FF" fill-rule="nonzero">
                        <path d="M14.4506834,0.114687964 C15.2424386,0.114687964 15.884283,0.756532344 15.884283,1.54828751 L15.884283,1.54828751 L15.884283,2.98188706 L27.3530794,2.98188706 C28.1448346,2.98188706 28.7866789,3.62373144 28.7866789,4.41548661 L28.7866789,4.41548661 L28.7866789,18.7514821 C28.7866789,21.1267476 26.8611458,23.0522807 24.4858803,23.0522807 L24.4858803,23.0522807 L17.9056584,23.0522807 L21.2029373,26.3352237 C21.4743359,26.6044058 21.6269937,26.9708279 21.6269937,27.3530794 C21.6269937,27.7353308 21.4743359,28.1017529 21.2029373,28.3709351 C20.9337552,28.6423336 20.5673331,28.7949914 20.1850816,28.7949914 C19.8028302,28.7949914 19.4364081,28.6423336 19.167226,28.3709351 L19.167226,28.3709351 L15.884283,25.0736561 L15.884283,27.3530794 C15.884283,28.1448346 15.2424386,28.7866789 14.4506834,28.7866789 C13.6589283,28.7866789 13.0170839,28.1448346 13.0170839,27.3530794 L13.0170839,27.3530794 L13.0170839,25.0736561 L9.73414093,28.3709351 C9.46495882,28.6423336 9.09853671,28.7949914 8.71628525,28.7949914 C8.3340338,28.7949914 7.96761169,28.6423336 7.69842957,28.3709351 C7.42703104,28.1017529 7.27437323,27.7353308 7.27437323,27.3530794 C7.27437323,26.9708279 7.42703104,26.6044058 7.69842957,26.3352237 L7.69842957,26.3352237 L10.9957085,23.0522807 L4.41548661,23.0522807 C2.04022111,23.0522807 0.114687964,21.1267476 0.114687964,18.7514821 L0.114687964,18.7514821 L0.114687964,4.41548661 C0.114687964,3.62373144 0.756532344,2.98188706 1.54828751,2.98188706 L1.54828751,2.98188706 L13.0170839,2.98188706 L13.0170839,1.54828751 C13.0170839,0.756532344 13.6589283,0.114687964 14.4506834,0.114687964 Z M26.9946832,5.10668707 L2.03468762,5.10668707 L2.03468762,19.2762845 C2.03468762,20.1458015 2.73312329,20.8506843 3.59468734,20.8506843 L3.59468734,20.8506843 L25.4346834,20.8506843 C26.2962475,20.8506843 26.9946832,20.1458015 26.9946832,19.2762845 L26.9946832,19.2762845 L26.9946832,5.10668707 Z" id="Combined-Shape"></path>
                        <path d="M5.74668598,11.5834844 L8.61388508,11.5834844 C9.40564024,11.5834844 10.0474846,10.94164 10.0474846,10.1498848 C10.0474846,9.35812963 9.40564024,8.71628525 8.61388508,8.71628525 L5.74668598,8.71628525 C4.95493081,8.71628525 4.31308643,9.35812963 4.31308643,10.1498848 C4.31308643,10.94164 4.95493081,11.5834844 5.74668598,11.5834844 Z" id="Icon-Path" opacity="0.7"></path>
                        <path d="M5.74668598,15.7818828 L14.3482833,15.7818828 C15.1400384,15.7818828 15.7818828,15.1400384 15.7818828,14.3482833 C15.7818828,13.5565281 15.1400384,12.9146837 14.3482833,12.9146837 L5.74668598,12.9146837 C4.95493081,12.9146837 4.31308643,13.5565281 4.31308643,14.3482833 C4.31308643,15.1400384 4.95493081,15.7818828 5.74668598,15.7818828 Z" id="Icon-Path"></path>
                    </g>
                </g>
                <g id="Group-3" transform="translate(725.000000, 333.000000)">
                    <g id="figure-msg" opacity="0.3" transform="translate(111.500000, 72.500000) scale(-1, 1) translate(-111.500000, -72.500000) " fill="#0041FF">
                        <rect id="area" opacity="0.69" x="0" y="0" width="223" height="145" rx="15.8957548"></rect>
                    </g>
                    <g id="bx-bxs-user" transform="translate(251.000000, 18.000000) scale(-1, 1) translate(-251.000000, -18.000000) translate(233.000000, 0.000000)">
                        <mask id="mask-4" fill="white">
                            <use xlink:href="#path-3"></use>
                        </mask>
                        <use id="Mask" fill="#0041FF" xlink:href="#path-3"></use>
                        <g mask="url(#mask-4)" id="Icon" opacity="0.7">
                            <g transform="translate(1.451840, 4.774080)">
                                <g transform="translate(0.322240, 0.406233)">
                                    <path d="M7.98335931,8.1252857 C7.98335931,12.5267778 11.5652265,16.108645 15.9667186,16.108645 C20.3682107,16.108645 23.9500779,12.5267778 23.9500779,8.1252857 C23.9500779,3.7237936 20.3682107,0.141926388 15.9667186,0.141926388 C11.5652265,0.141926388 7.98335931,3.7237936 7.98335931,8.1252857 Z M30.1593574,33.8494435 L31.9334372,33.8494435 L31.9334372,32.0753636 C31.9334372,25.2291895 26.3610524,19.6568047 19.5148783,19.6568047 L12.4185589,19.6568047 C5.57061072,19.6568047 0,25.2291895 0,32.0753636 L0,33.8494435 L30.1593574,33.8494435 Z" id="Icon-Shape" fill="#FFFFFF" fill-rule="nonzero"></path>
                                </g>
                            </g>
                        </g>
                    </g>
                    <g id="ic-round-warning" opacity="0.5" transform="translate(173.000000, 43.000000)" fill="#0041FF" fill-rule="nonzero">
                        <path d="M4.47,21 L19.53,21 C21.07,21 22.03,19.33 21.26,18 L13.73,4.99 C12.96,3.66 11.04,3.66 10.27,4.99 L2.74,18 C1.97,19.33 2.93,21 4.47,21 Z M12,14 C11.45,14 11,13.55 11,13 L11,11 C11,10.45 11.45,10 12,10 C12.55,10 13,10.45 13,11 L13,13 C13,13.55 12.55,14 12,14 Z M13,18 L11,18 L11,16 L13,16 L13,18 Z" id="Icon-Shape"></path>
                    </g>
                    <g id="Group" transform="translate(61.000000, 21.000000)">
                        <rect id="Rectangle" stroke="#FFFFFF" stroke-width="4" opacity="0.2" x="2" y="2" width="123" height="20" rx="10"></rect>
                        <rect id="Rectangle" fill="#FFFFFF" opacity="0.7" x="8" y="7" width="80" height="10" rx="5"></rect>
                    </g>
                    <g id="Group" transform="translate(61.000000, 50.000000)">
                        <rect id="Rectangle" stroke="#FFFFFF" stroke-width="4" opacity="0.2" x="2" y="2" width="123" height="20" rx="10"></rect>
                        <rect id="Rectangle" fill="#FFFFFF" opacity="0.7" x="8" y="7" width="50" height="10" rx="5"></rect>
                    </g>
                    <g id="Group" transform="translate(61.000000, 77.000000)">
                        <rect id="Rectangle" stroke="#FFFFFF" stroke-width="4" opacity="0.2" x="2" y="2" width="123" height="20" rx="10"></rect>
                        <rect id="Rectangle" fill="#FFFFFF" opacity="0.7" x="8" y="7" width="20" height="10" rx="5"></rect>
                    </g>
                    <g id="fa-solid:pen-nib" opacity="0.7" transform="translate(33.500000, 109.500000) rotate(-180.000000) translate(-33.500000, -109.500000) translate(11.000000, 87.000000)" fill="#FFFFFF" fill-rule="nonzero">
                        <path d="M11.9290212,12.1202698 C10.1482489,12.6236048 8.73204671,13.9757166 8.14684032,15.7312875 L0,40.1709352 L1.28285008,41.4537853 L14.3916742,28.3449612 C14.1305631,27.7982872 13.9724992,27.1939766 13.9724992,26.5477485 C13.9724992,24.23268 15.8491805,22.3559987 18.164249,22.3559987 C20.4793174,22.3559987 22.3559987,24.23268 22.3559987,26.5477485 C22.3559987,28.862817 20.4793174,30.7394983 18.164249,30.7394983 C17.5180209,30.7394983 16.9137103,30.5814344 16.3670363,30.3203233 L3.25821216,43.4291474 L4.54106224,44.7119975 L28.9807099,36.5651572 C30.7362809,35.9799508 32.0883927,34.5637485 32.5917277,32.7829763 L36.3284979,19.5614989 L25.1504986,8.38349953 L11.9290212,12.1202698 Z M43.4841641,6.47712667 L38.2348708,1.22783337 C36.5974686,-0.409568883 33.9418204,-0.409568883 32.3044182,1.22783337 L27.366013,6.16623856 L38.5457589,17.3459845 L43.4841641,12.4075793 C45.1215664,10.770177 45.1215664,8.1154022 43.4841641,6.47712667 L43.4841641,6.47712667 Z" id="Icon-Shape"></path>
                    </g>
                    <g id="raphael-settingsalt" opacity="0.4" transform="translate(186.000000, 25.000000) rotate(-360.000000) translate(-186.000000, -25.000000) translate(177.000000, 15.000000)" fill="#0041FF">
                        <path d="M16.1714919,8.81145542 C14.7985286,10.3905349 12.6165096,10.999274 10.6243876,10.3589853 L3.61171583,18.4244848 C2.86104737,19.2709097 1.56852833,19.3543149 0.715300316,18.6113881 C-0.137927696,17.8684612 -0.233103621,16.5767556 0.502019878,15.7167953 L7.52542479,7.64348992 C6.64919721,5.81703303 6.90921106,3.64849596 8.19238843,2.08095795 C9.4755658,0.513419949 11.5500113,-0.169834063 13.5135654,0.328337565 L10.8253908,3.46242712 L11.7035604,6.01887625 L14.3605111,6.53602054 L17.0535644,3.39412504 C17.8127226,5.22084022 17.4717589,7.31992115 16.1734434,8.81243116 L16.1714919,8.81145542 Z" id="Icon-Path"></path>
                    </g>
                    <g id="raphael-settingsalt" opacity="0.4" transform="translate(186.000000, 85.000000) rotate(-360.000000) translate(-186.000000, -85.000000) translate(177.000000, 75.000000)" fill="#0041FF">
                        <path d="M16.1714919,8.81145542 C14.7985286,10.3905349 12.6165096,10.999274 10.6243876,10.3589853 L3.61171583,18.4244848 C2.86104737,19.2709097 1.56852833,19.3543149 0.715300316,18.6113881 C-0.137927696,17.8684612 -0.233103621,16.5767556 0.502019878,15.7167953 L7.52542479,7.64348992 C6.64919721,5.81703303 6.90921106,3.64849596 8.19238843,2.08095795 C9.4755658,0.513419949 11.5500113,-0.169834063 13.5135654,0.328337565 L10.8253908,3.46242712 L11.7035604,6.01887625 L14.3605111,6.53602054 L17.0535644,3.39412504 C17.8127226,5.22084022 17.4717589,7.31992115 16.1734434,8.81243116 L16.1714919,8.81145542 Z" id="Icon-Path"></path>
                    </g>
                </g>
                <g id="Group-5" transform="translate(641.000000, 541.000000)">
                    <g id="figure-calendar" transform="translate(109.500000, 61.000000) scale(-1, 1) translate(-109.500000, -61.000000) ">
                        <mask id="mask-6" fill="white">
                            <use xlink:href="#path-5"></use>
                        </mask>
                        <use id="Mask" fill="#0041FF" opacity="0.2" xlink:href="#path-5"></use>
                        <g opacity="0.3" mask="url(#mask-6)" fill="#0041FF" id="date">
                            <g>
                                <rect id="Rectangle" opacity="0.5" x="0" y="0" width="28.7999987" height="28.7999987"></rect>
                                <rect id="Rectangle" x="0" y="0" width="28.7999987" height="5.75999974"></rect>
                            </g>
                            <g transform="translate(31.600000, 0.000000)">
                                <rect id="Rectangle" opacity="0.5" x="0" y="0" width="28.7999987" height="28.7999987"></rect>
                                <rect id="Rectangle" x="0" y="0" width="28.7999987" height="5.75999974"></rect>
                            </g>
                            <g transform="translate(63.200001, 0.000000)">
                                <rect id="Rectangle" opacity="0.5" x="0" y="0" width="28.7999987" height="28.7999987"></rect>
                                <rect id="Rectangle" x="0" y="0" width="28.7999987" height="5.75999974"></rect>
                            </g>
                            <g transform="translate(94.800001, 0.000000)">
                                <rect id="Rectangle" opacity="0.5" x="0" y="0" width="28.7999987" height="28.7999987"></rect>
                                <rect id="Rectangle" x="0" y="0" width="28.7999987" height="5.75999974"></rect>
                            </g>
                            <g transform="translate(126.800002, 0.000000)">
                                <rect id="Rectangle" opacity="0.5" x="0" y="0" width="28.7999987" height="28.7999987"></rect>
                                <rect id="Rectangle" x="0" y="0" width="28.7999987" height="5.75999974"></rect>
                            </g>
                            <g transform="translate(158.400002, 0.000000)">
                                <rect id="Rectangle" opacity="0.5" x="0" y="0" width="28.7999987" height="28.7999987"></rect>
                                <rect id="Rectangle" x="0" y="0" width="28.7999987" height="5.75999974"></rect>
                            </g>
                            <g transform="translate(190.000003, 0.000000)">
                                <rect id="Rectangle" opacity="0.5" x="0" y="0" width="28.7999987" height="28.7999987"></rect>
                                <rect id="Rectangle" x="0" y="0" width="28.7999987" height="5.75999974"></rect>
                            </g>
                            <g transform="translate(0.000000, 31.000000)">
                                <rect id="Rectangle" opacity="0.5" x="0" y="0" width="28.7999987" height="28.7999987"></rect>
                                <rect id="Rectangle" x="0" y="0" width="28.7999987" height="5.75999974"></rect>
                            </g>
                            <g transform="translate(31.600000, 31.000000)">
                                <rect id="Rectangle" opacity="0.5" x="0" y="0" width="28.7999987" height="28.7999987"></rect>
                                <rect id="Rectangle" x="0" y="0" width="28.7999987" height="5.75999974"></rect>
                            </g>
                            <g transform="translate(63.200001, 31.000000)">
                                <rect id="Rectangle" opacity="0.5" x="0" y="0" width="28.7999987" height="28.7999987"></rect>
                                <rect id="Rectangle" x="0" y="0" width="28.7999987" height="5.75999974"></rect>
                            </g>
                            <g transform="translate(94.800001, 31.000000)">
                                <rect id="Rectangle" opacity="0.5" x="0" y="0" width="28.7999987" height="28.7999987"></rect>
                                <rect id="Rectangle" x="0" y="0" width="28.7999987" height="5.75999974"></rect>
                            </g>
                            <g transform="translate(126.800002, 31.000000)">
                                <rect id="Rectangle" opacity="0.5" x="0" y="0" width="28.7999987" height="28.7999987"></rect>
                                <rect id="Rectangle" x="0" y="0" width="28.7999987" height="5.75999974"></rect>
                            </g>
                            <g transform="translate(158.400002, 31.000000)">
                                <rect id="Rectangle" opacity="0.5" x="0" y="0" width="28.7999987" height="28.7999987"></rect>
                                <rect id="Rectangle" x="0" y="0" width="28.7999987" height="5.75999974"></rect>
                            </g>
                            <g transform="translate(190.000003, 31.000000)">
                                <rect id="Rectangle" opacity="0.5" x="0" y="0" width="28.7999987" height="28.7999987"></rect>
                                <rect id="Rectangle" x="0" y="0" width="28.7999987" height="5.75999974"></rect>
                            </g>
                            <g transform="translate(0.000000, 62.000000)">
                                <rect id="Rectangle" opacity="0.5" x="0" y="0" width="28.7999987" height="28.7999987"></rect>
                                <rect id="Rectangle" x="0" y="0" width="28.7999987" height="5.75999974"></rect>
                            </g>
                            <g transform="translate(31.600000, 62.000000)">
                                <rect id="Rectangle" opacity="0.5" x="0" y="0" width="28.7999987" height="28.7999987"></rect>
                                <rect id="Rectangle" x="0" y="0" width="28.7999987" height="5.75999974"></rect>
                            </g>
                            <g transform="translate(63.200001, 62.000000)">
                                <rect id="Rectangle" opacity="0.5" x="0" y="0" width="28.7999987" height="28.7999987"></rect>
                                <rect id="Rectangle" x="0" y="0" width="28.7999987" height="5.75999974"></rect>
                            </g>
                            <g transform="translate(94.800001, 62.000000)">
                                <rect id="Rectangle" opacity="0.5" x="0" y="0" width="28.7999987" height="28.7999987"></rect>
                                <rect id="Rectangle" x="0" y="0" width="28.7999987" height="5.75999974"></rect>
                            </g>
                            <g transform="translate(126.800002, 62.000000)">
                                <rect id="Rectangle" opacity="0.5" x="0" y="0" width="28.7999987" height="28.7999987"></rect>
                                <rect id="Rectangle" x="0" y="0" width="28.7999987" height="5.75999974"></rect>
                            </g>
                            <g transform="translate(158.400002, 62.000000)">
                                <rect id="Rectangle" opacity="0.5" x="0" y="0" width="28.7999987" height="28.7999987"></rect>
                                <rect id="Rectangle" x="0" y="0" width="28.7999987" height="5.75999974"></rect>
                            </g>
                            <g transform="translate(190.000003, 62.000000)">
                                <rect id="Rectangle" opacity="0.5" x="0" y="0" width="28.7999987" height="28.7999987"></rect>
                                <rect id="Rectangle" x="0" y="0" width="28.7999987" height="5.75999974"></rect>
                            </g>
                            <g transform="translate(0.000000, 93.000000)">
                                <rect id="Rectangle" opacity="0.5" x="0" y="0" width="28.7999987" height="28.7999987"></rect>
                                <rect id="Rectangle" x="0" y="0" width="28.7999987" height="5.75999974"></rect>
                            </g>
                            <g transform="translate(31.600000, 93.000000)">
                                <rect id="Rectangle" opacity="0.5" x="0" y="0" width="28.7999987" height="28.7999987"></rect>
                                <rect id="Rectangle" x="0" y="0" width="28.7999987" height="5.75999974"></rect>
                            </g>
                            <g transform="translate(63.200001, 93.000000)">
                                <rect id="Rectangle" opacity="0.5" x="0" y="0" width="28.7999987" height="28.7999987"></rect>
                                <rect id="Rectangle" x="0" y="0" width="28.7999987" height="5.75999974"></rect>
                            </g>
                            <g transform="translate(94.800001, 93.000000)">
                                <rect id="Rectangle" opacity="0.5" x="0" y="0" width="28.7999987" height="28.7999987"></rect>
                                <rect id="Rectangle" x="0" y="0" width="28.7999987" height="5.75999974"></rect>
                            </g>
                            <g transform="translate(126.800002, 93.000000)">
                                <rect id="Rectangle" opacity="0.5" x="0" y="0" width="28.7999987" height="28.7999987"></rect>
                                <rect id="Rectangle" x="0" y="0" width="28.7999987" height="5.75999974"></rect>
                            </g>
                            <g transform="translate(158.400002, 93.000000)">
                                <rect id="Rectangle" opacity="0.5" x="0" y="0" width="28.7999987" height="28.7999987"></rect>
                                <rect id="Rectangle" x="0" y="0" width="28.7999987" height="5.75999974"></rect>
                            </g>
                            <g transform="translate(190.000003, 93.000000)">
                                <rect id="Rectangle" opacity="0.5" x="0" y="0" width="28.7999987" height="28.7999987"></rect>
                                <rect id="Rectangle" x="0" y="0" width="28.7999987" height="5.75999974"></rect>
                            </g>
                        </g>
                    </g>
                    <g id="mayFourth" transform="translate(83.000000, 37.000000)">
                        <g id="popup" transform="translate(30.500000, 23.500000) scale(-1, 1) translate(-30.500000, -23.500000) ">
                            <use fill="black" fill-opacity="1" filter="url(#filter-8)" xlink:href="#path-7"></use>
                            <use fill="#FFFFFF" fill-rule="evenodd" xlink:href="#path-7"></use>
                        </g>
                        <g id="placehoder" transform="translate(3.000000, 14.000000)" fill="#0041FF" opacity="0.2">
                            <circle id="Oval" cx="3.5" cy="3.5" r="3.5"></circle>
                            <circle id="Oval" cx="3.5" cy="11.5" r="3.5"></circle>
                            <circle id="Oval" cx="3.5" cy="19.5" r="3.5"></circle>
                        </g>
                        <g id="placehoder" transform="translate(51.000000, 14.000000)" fill="#0041FF" opacity="0.2">
                            <circle id="Oval" cx="3.5" cy="3.5" r="3.5"></circle>
                            <circle id="Oval" cx="3.5" cy="11.5" r="3.5"></circle>
                            <circle id="Oval" cx="3.5" cy="19.5" r="3.5"></circle>
                        </g>
                        <text id="4" font-family="DFKaiShu-SB-Estd-BF, BiauKai" font-size="40" font-weight="normal" fill="#0041FF">
                            <tspan x="21" y="42">4</tspan>
                        </text>
                        <text id="May" font-family="DFKaiShu-SB-Estd-BF, BiauKai" font-size="11" font-weight="normal" fill="#0041FF">
                            <tspan x="20" y="12">May</tspan>
                        </text>
                    </g>
                    <g id="bx-bxs-user" transform="translate(247.000000, 18.000000) scale(-1, 1) translate(-247.000000, -18.000000) translate(229.000000, 0.000000)">
                        <mask id="mask-10" fill="white">
                            <use xlink:href="#path-9"></use>
                        </mask>
                        <use id="Mask" fill="#0041FF" xlink:href="#path-9"></use>
                        <g mask="url(#mask-10)" id="Icon" opacity="0.7">
                            <g transform="translate(1.451840, 4.774080)">
                                <g transform="translate(0.322240, 0.406233)">
                                    <path d="M7.98335931,8.1252857 C7.98335931,12.5267778 11.5652265,16.108645 15.9667186,16.108645 C20.3682107,16.108645 23.9500779,12.5267778 23.9500779,8.1252857 C23.9500779,3.7237936 20.3682107,0.141926388 15.9667186,0.141926388 C11.5652265,0.141926388 7.98335931,3.7237936 7.98335931,8.1252857 Z M30.1593574,33.8494435 L31.9334372,33.8494435 L31.9334372,32.0753636 C31.9334372,25.2291895 26.3610524,19.6568047 19.5148783,19.6568047 L12.4185589,19.6568047 C5.57061072,19.6568047 0,25.2291895 0,32.0753636 L0,33.8494435 L30.1593574,33.8494435 Z" id="Icon-Shape" fill="#FFFFFF" fill-rule="nonzero"></path>
                                </g>
                            </g>
                        </g>
                    </g>
                </g>
                <text id="工-程-資-訊" stroke="#0041FF" opacity="0.2" font-family="DFKaiShu-SB-Estd-BF, BiauKai" font-size="80" font-weight="normal" fill="#0041FF">
                    <tspan x="306" y="334">工</tspan>
                    <tspan x="306" y="416">程</tspan>
                    <tspan x="306" y="498">資</tspan>
                    <tspan x="306" y="580">訊</tspan>
                </text>
                <g id="figure-AECOM-IIS" transform="translate(521.000000, 169.000000)" fill="#0041FF">
                    <g id="aecom-logo-dark" transform="translate(0.000000, 20.824295)" fill-rule="nonzero">
                        <path d="M32.7894621,15.0963564 L32.8994939,15.0963564 L37.0807004,35.0121035 L24.4270489,35.0121035 L32.7894621,15.0963564 Z M27.067811,1.45241913 L0,58.8889937 L14.4141595,58.8889937 L19.1455249,47.665755 L39.8314942,47.665755 L42.142161,58.8889937 L55.7860983,58.8889937 L42.582288,1.45241913 L27.067811,1.45241913 Z" id="Shape"></path>
                        <path d="M94.6273067,36.8826433 L59.1970826,36.8826433 L61.1776541,23.5688013 L96.71791,23.5688013 L94.6273067,36.8826433 Z M102.879688,14.7662611 L62.4980351,14.7662611 L64.4786067,1.45241913 L104.86026,1.45241913 L102.879688,14.7662611 Z M98.2583546,45.4651199 L57.8767016,45.4651199 L55.89613,58.8889937 L96.277783,58.8889937 L98.2583546,45.4651199 Z" id="Shape"></path>
                        <path d="M142.711182,44.1447389 C138.860071,45.9052469 133.13842,46.2353422 130.277594,46.2353422 C121.144959,46.2353422 115.203244,40.0735641 115.423308,30.8308969 C115.753403,21.1481027 123.125531,14.1060706 133.13842,14.1060706 C137.869785,14.1060706 142.050992,15.6465151 145.792071,18.8374359 L148.542865,5.08346694 C142.821214,1.67248263 138.089849,0.352101606 132.038102,0.352101606 C115.53334,0.352101606 101.889402,14.1060706 101.229212,31.4910874 C100.679053,48.3259455 111.572197,60.099343 127.746864,60.099343 C130.60769,60.099343 136.659436,59.7692477 140.510547,58.0087397 L142.711182,44.1447389 Z" id="Path"></path>
                        <path d="M186.50382,32.1512779 C188.594423,22.4684838 184.963375,14.8762929 177.591248,13.3358483 C169.55893,11.6853721 162.186802,17.8471502 159.986167,28.0801031 C157.895564,37.7628973 161.526612,45.3550882 168.898739,46.8955327 C176.931057,48.546009 184.303185,42.3842309 186.50382,32.1512779 M177.041089,0.462133358 C192.445534,1.56245088 201.908265,14.1060706 200.147757,30.7208652 C198.387249,47.9958502 184.523248,60.7595335 168.788708,59.6592159 C153.384262,58.5588984 143.921532,46.0152787 145.68204,29.4004841 C147.442548,12.1254991 161.41658,-0.638184162 177.041089,0.462133358" id="Shape"></path>
                        <polygon id="Path" points="249.992141 1.45241913 233.377346 33.8017542 226.665409 1.45241913 213.791694 1.45241913 195.96655 58.8889937 210.160646 58.8889937 219.953472 25.2192776 226.005219 58.8889937 233.267314 58.8889937 250.102172 25.2192776 249.882109 58.8889937 263.966173 58.8889937 262.975887 1.45241913"></polygon>
                    </g>
                    <text id="IIS" font-family="DINAlternate-Bold, DIN Alternate" font-size="86.7678959" font-weight="bold">
                        <tspan x="305.422993" y="81">IIS</tspan>
                    </text>
                </g>
                <text id="管-理-平-台" stroke="#0041FF" opacity="0.2" font-family="DFKaiShu-SB-Estd-BF, BiauKai" font-size="80" font-weight="normal" fill="#0041FF">
                    <tspan x="1054" y="334">管</tspan>
                    <tspan x="1054" y="416">理</tspan>
                    <tspan x="1054" y="498">平</tspan>
                    <tspan x="1054" y="580">台</tspan>
                </text>
            </g>
        </g>
    </g>
</svg>