<?xml version="1.0" encoding="UTF-8"?>
<svg width="174px" height="40px" viewBox="0 0 174 40" version="1.1" xmlns="http://www.w3.org/2000/svg" xmlns:xlink="http://www.w3.org/1999/xlink">
    <title>logo-aecom</title>
    <g id="marketing-website" stroke="none" stroke-width="1" fill="none" fill-rule="evenodd">
        <g id="work-study-aecom" transform="translate(-608.000000, -81.000000)" fill="#231F20" fill-rule="nonzero">
            <g id="logo-aecom" transform="translate(608.000000, 81.000000)">
                <path d="M21.5942016,9.94202839 L21.6666654,9.94202839 L24.4202884,23.0579696 L16.0869556,23.0579696 L21.5942016,9.94202839 Z M17.8260859,0.956521682 L0,38.7826064 L9.49275306,38.7826064 L12.6086949,31.3913025 L26.2318825,31.3913025 L27.7536215,38.7826064 L36.7391282,38.7826064 L28.0434766,0.956521682 L17.8260859,0.956521682 Z" id="Shape"></path>
                <path d="M62.3188369,24.2898536 L38.9855049,24.2898536 L40.2898527,15.5217382 L63.6956484,15.5217382 L62.3188369,24.2898536 Z M67.7536191,9.7246371 L41.1594178,9.7246371 L42.4637656,0.956521682 L69.0579669,0.956521682 L67.7536191,9.7246371 Z M64.7101411,29.9420272 L38.1159398,29.9420272 L36.811592,38.7826064 L63.4057933,38.7826064 L64.7101411,29.9420272 Z" id="Shape"></path>
                <g id="Group" transform="translate(66.637677, 0.000000)">
                    <path d="M27.3478245,29.072462 C24.8115927,30.231884 21.043477,30.4492735 19.1594191,30.4492735 C13.1449268,30.4492735 9.23188351,26.3913028 9.37681104,20.3043466 C9.59420233,13.9275354 14.4492745,9.28985452 21.043477,9.28985452 C24.1594188,9.28985452 26.9130419,10.3043472 29.3768098,12.4057964 L31.1884039,3.34782589 C27.4202882,1.10144921 24.3043464,0.231884044 20.3188394,0.231884044 C9.4492748,0.231884044 0.463768088,9.28985452 0.0289855055,20.7391292 C-0.333333313,31.8260851 6.8405793,39.5797078 17.4927526,39.5797078 C19.3768104,39.5797078 23.3623174,39.3623165 25.8985492,38.2028963 L27.3478245,29.072462 Z" id="Path"></path>
                    <path d="M56.1884024,21.1739118 C57.565214,14.7971006 55.1739098,9.79710087 50.3188376,8.78260817 C45.0289828,7.69565172 40.1739106,11.7536225 38.7246354,18.4927525 C37.3478239,24.8695637 39.7391281,29.8695634 44.5942002,30.8840561 C49.884055,31.9710126 54.7391272,27.9130418 56.1884024,21.1739118 M49.9565188,0.304347808 C60.1014457,1.02898545 66.3333294,9.28985452 65.1739092,20.2318829 C64.0144889,31.6086938 54.8840547,40.0144904 44.5217365,39.2898527 C34.3768095,38.5652151 28.1449259,30.304346 29.3043461,19.3623177 C30.4637663,7.98550677 39.6666643,-0.42028983 49.9565188,0.304347808" id="Shape"></path>
                </g>
                <polygon id="Path" points="164.637671 0.956521682 153.695643 22.2608682 149.275353 0.956521682 140.797093 0.956521682 129.057963 38.7826064 138.405789 38.7826064 144.855064 16.6086947 148.840571 38.7826064 153.623179 38.7826064 164.710135 16.6086947 164.565208 38.7826064 173.840569 38.7826064 173.188395 0.956521682"></polygon>
            </g>
        </g>
    </g>
</svg>