<?xml version="1.0" encoding="UTF-8"?>
<svg width="469px" height="98px" viewBox="0 0 469 98" version="1.1" xmlns="http://www.w3.org/2000/svg" xmlns:xlink="http://www.w3.org/1999/xlink">
    <title>work-aecom-iis-workflow</title>
    <defs>
        <circle id="path-1" cx="26" cy="34" r="19"></circle>
        <path d="M43.783086,17.3713225 C43.783086,11.1478911 39.9613951,5.82249506 34.5398363,3.59679436 L31.3749985,9.92647 L31.3749985,1.24080875 C31.3749985,0.555529 30.8194695,0 30.1341898,0 L22.6893373,0 C22.0040575,0 21.4485285,0.555529 21.4485285,1.24080875 L21.4485285,9.92647 L18.2836907,3.59679436 C12.862132,5.82249506 9.04044103,11.1478911 9.04044103,17.3713225 L9.04044103,22.3345575 L43.783086,22.3345575 L43.783086,17.3713225 Z M45.0238948,20.4044105 L7.79963228,20.4044105 C7.11435253,20.4044105 6.55882353,20.9599395 6.55882353,21.6452193 L6.55882353,24.1268368 C6.55882353,24.8121165 7.11435253,25.3676455 7.79963228,25.3676455 L45.0238948,25.3676455 C45.7091745,25.3676455 46.2647035,24.8121165 46.2647035,24.1268368 L46.2647035,21.6452193 C46.2647035,20.9599395 45.7091745,20.4044105 45.0238948,20.4044105 Z" id="path-2"></path>
        <circle id="path-3" cx="26" cy="34" r="19"></circle>
        <path d="M43.783086,17.3713225 C43.783086,11.1478911 39.9613951,5.82249506 34.5398363,3.59679436 L31.3749985,9.92647 L31.3749985,1.24080875 C31.3749985,0.555529 30.8194695,0 30.1341898,0 L22.6893373,0 C22.0040575,0 21.4485285,0.555529 21.4485285,1.24080875 L21.4485285,9.92647 L18.2836907,3.59679436 C12.862132,5.82249506 9.04044103,11.1478911 9.04044103,17.3713225 L9.04044103,22.3345575 L43.783086,22.3345575 L43.783086,17.3713225 Z M45.0238948,20.4044105 L7.79963228,20.4044105 C7.11435253,20.4044105 6.55882353,20.9599395 6.55882353,21.6452193 L6.55882353,24.1268368 C6.55882353,24.8121165 7.11435253,25.3676455 7.79963228,25.3676455 L45.0238948,25.3676455 C45.7091745,25.3676455 46.2647035,24.8121165 46.2647035,24.1268368 L46.2647035,21.6452193 C46.2647035,20.9599395 45.7091745,20.4044105 45.0238948,20.4044105 Z" id="path-4"></path>
        <circle id="path-5" cx="26" cy="29" r="19"></circle>
    </defs>
    <g id="marketing-website" stroke="none" stroke-width="1" fill="none" fill-rule="evenodd">
        <g id="work-study-aecom" transform="translate(-486.000000, -1937.000000)">
            <g id="work-aecom-iis-workflow" transform="translate(486.000000, 1937.000000)">
                <g id="AECOM-partner" transform="translate(0.000000, 1.000000)">
                    <rect id="belt" fill="#0041FF" x="0.676470588" y="86.7360154" width="52.2058824" height="9.55882353"></rect>
                    <g id="shulder-strap" transform="translate(1.775040, 41.147780)">
                        <polygon id="Rectangle" fill="#0041FF" opacity="0.8" points="0.372018426 10.8774113 11.9320962 2.61228947e-14 26.8426067 54.4404566 11.9320962 54.4404566"></polygon>
                        <polygon id="Rectangle" fill="#FFFFFF" points="1.84260666 10.6576882 3.61147353 8.85221992 15.0779008 54.4404566 13.4026845 54.4404566"></polygon>
                        <polygon id="Rectangle" fill="#FFFFFF" points="9.47707631 3.59251455 11.2143126 1.78957833 25.3720184 54.4404566 23.7267581 54.4404566"></polygon>
                    </g>
                    <g id="shulder-strap" transform="translate(38.647059, 68.647780) scale(-1, 1) translate(-38.647059, -68.647780) translate(25.147059, 41.147780)">
                        <polygon id="Rectangle" fill="#0041FF" opacity="0.8" points="0.372018426 10.8774113 11.9320962 2.61228947e-14 26.8426067 54.4404566 11.9320962 54.4404566"></polygon>
                        <polygon id="Rectangle" fill="#FFFFFF" points="1.84260666 10.6576882 3.61147353 8.85221992 15.0779008 54.4404566 13.4026845 54.4404566"></polygon>
                        <polygon id="Rectangle" fill="#FFFFFF" points="9.47707631 3.59251455 11.2143126 1.78957833 25.3720184 54.4404566 23.7267581 54.4404566"></polygon>
                    </g>
                    <g id="Oval">
                        <use fill="#FFFFFF" xlink:href="#path-1"></use>
                        <use fill-opacity="0.2" fill="#0041FF" xlink:href="#path-1"></use>
                    </g>
                    <g id="Icon-Shape" fill-rule="nonzero">
                        <use fill="#FFFFFF" xlink:href="#path-2"></use>
                        <use fill-opacity="0.7" fill="#0041FF" xlink:href="#path-2"></use>
                    </g>
                    <rect id="eye" fill="#0041FF" x="15" y="27" width="6" height="7" rx="3"></rect>
                    <rect id="eye" fill="#0041FF" x="33" y="27" width="6" height="7" rx="3"></rect>
                    <path d="M27.5510204,33 C28.9035545,33 30,34.0964455 30,35.4489796 L30,35.5510204 C30,36.9035545 28.9035545,38 27.5510204,38 L27.1157312,38 L27,37.996 L27,36.928 L27.5714445,36.9285714 C28.3140122,36.9285714 28.9242528,36.3620113 28.9934763,35.637581 L29.0000159,35.5 C29.0000159,34.7110218 28.3604227,34.0714286 27.5714445,34.0714286 L27.5714445,34.0714286 L27,34.071 L26.9997301,33.0026989 C27.0381722,33.0009063 27.0768459,33 27.1157312,33 L27.5510204,33 Z" id="nose" fill="#0041FF"></path>
                    <path d="M27.0003419,38.9996581 C28.1049114,38.9996581 29.0003419,39.8950886 29.0003419,40.9996581 L29.0003419,43.9996581 C29.0003419,45.1042276 28.1049114,45.9996581 27.0003419,45.9996581 L25.9996581,45.9996581 L25.9996581,44.9276581 L27.0003579,44.9282295 C27.5131937,44.9282295 27.935865,44.5421893 27.9936301,44.0448506 L28.0003579,43.9282295 L28.0003579,40.9282295 C28.0003579,40.3759447 27.5526426,39.9282295 27.0003579,39.9282295 L27.0003579,39.9282295 L25.9996581,39.9276581 L25.9996581,38.9996581 L27.0003419,38.9996581 Z" id="mouth" fill="#0041FF" transform="translate(27.500000, 42.499658) rotate(-270.000000) translate(-27.500000, -42.499658) "></path>
                </g>
                <g id="AECOM-partner" transform="translate(208.000000, 1.000000)">
                    <g id="top" transform="translate(26.147059, 68.647780) scale(-1, 1) translate(-26.147059, -68.647780) translate(0.147059, 41.147780)" fill="#0041FF" opacity="0.8">
                        <polygon id="Rectangle" transform="translate(34.358108, 27.220228) scale(-1, 1) translate(-34.358108, -27.220228) " points="17.6764706 10.8774113 29.2365484 0 51.1470588 54.4404566 17.569158 54.4404566"></polygon>
                        <polygon id="Rectangle" points="0.107312544 10.8774113 11.6673903 0 33.5779008 54.4404566 0 54.4404566"></polygon>
                    </g>
                    <g id="Oval">
                        <use fill="#FFFFFF" xlink:href="#path-3"></use>
                        <use fill-opacity="0.2" fill="#0041FF" xlink:href="#path-3"></use>
                    </g>
                    <g id="Icon-Shape" fill-rule="nonzero">
                        <use fill="#FFFFFF" xlink:href="#path-4"></use>
                        <use fill-opacity="0.7" fill="#0041FF" xlink:href="#path-4"></use>
                    </g>
                    <rect id="eye" fill="#0041FF" x="15" y="27" width="6" height="7" rx="3"></rect>
                    <rect id="eye" fill="#0041FF" x="33" y="27" width="6" height="7" rx="3"></rect>
                    <path d="M27.5510204,33 C28.9035545,33 30,34.0964455 30,35.4489796 L30,35.5510204 C30,36.9035545 28.9035545,38 27.5510204,38 L27.1157312,38 L27,37.996 L27,36.928 L27.5714445,36.9285714 C28.3140122,36.9285714 28.9242528,36.3620113 28.9934763,35.637581 L29.0000159,35.5 C29.0000159,34.7110218 28.3604227,34.0714286 27.5714445,34.0714286 L27.5714445,34.0714286 L27,34.071 L26.9997301,33.0026989 C27.0381722,33.0009063 27.0768459,33 27.1157312,33 L27.5510204,33 Z" id="nose" fill="#0041FF"></path>
                    <path d="M27.0003419,38.9996581 C28.1049114,38.9996581 29.0003419,39.8950886 29.0003419,40.9996581 L29.0003419,43.9996581 C29.0003419,45.1042276 28.1049114,45.9996581 27.0003419,45.9996581 L25.9996581,45.9996581 L25.9996581,44.9276581 L27.0003579,44.9282295 C27.5131937,44.9282295 27.935865,44.5421893 27.9936301,44.0448506 L28.0003579,43.9282295 L28.0003579,40.9282295 C28.0003579,40.3759447 27.5526426,39.9282295 27.0003579,39.9282295 L27.0003579,39.9282295 L25.9996581,39.9276581 L25.9996581,38.9996581 L27.0003419,38.9996581 Z" id="mouth" fill="#0041FF" transform="translate(27.500000, 42.499658) rotate(-270.000000) translate(-27.500000, -42.499658) "></path>
                </g>
                <g id="Group-12" transform="translate(70.000000, 0.000000)" fill="#0041FF">
                    <rect id="drag" opacity="0.1" x="0" y="1.5" width="43.5" height="22.5"></rect>
                    <rect id="drag" opacity="0.5" x="39" y="0" width="3" height="22.5"></rect>
                    <text id="第-1-步" font-family="PingFangTC-Semibold, PingFang TC" font-size="9.75" font-weight="500">
                        <tspan x="3" y="16">第 1 步</tspan>
                    </text>
                </g>
                <path d="M96.8419283,49 C97.5174909,49 98.1408993,49.2232985 98.6423716,49.6001133 C99.0534585,49.6375764 99.453791,49.7603937 99.817264,49.9613628 L120.459244,61.3745886 C121.909218,62.1762989 122.434741,64.0016503 121.63303,65.451625 C121.359959,65.9455019 120.953121,66.3523403 120.459244,66.6254114 L99.817264,78.0386372 C99.4410342,78.2466597 99.0395317,78.3653243 98.6371964,78.4016675 C98.1375896,78.7778854 97.5156977,79 96.8419283,79 L73,79 C71.3431458,79 70,77.6568542 70,76 L70,52 C70,50.3431458 71.3431458,49 73,49 L96.8419283,49 Z" id="arrow" fill="#0041FF" opacity="0.1"></path>
                <path d="M413.841928,39 C414.517491,39 415.140899,39.2232985 415.642372,39.6001133 C416.053459,39.6375764 416.453791,39.7603937 416.817264,39.9613628 L437.459244,51.3745886 C438.909218,52.1762989 439.434741,54.0016503 438.63303,55.451625 C438.359959,55.9455019 437.953121,56.3523403 437.459244,56.6254114 L416.817264,68.0386372 C416.441034,68.2466597 416.039532,68.3653243 415.637196,68.4016675 C415.13759,68.7778854 414.515698,69 413.841928,69 L390,69 C388.343146,69 387,67.6568542 387,66 L387,42 C387,40.3431458 388.343146,39 390,39 L413.841928,39 Z" id="arrow" fill="#0041FF" opacity="0.1"></path>
                <path d="M133.586551,33 C134.055591,33 134.488196,33.1560005 134.83531,33.4189468 C135.116205,33.4475918 135.389903,33.5334055 135.6383,33.6722954 L149.983351,41.6932541 C150.98119,42.25119 151.337801,43.5123941 150.779865,44.5102323 C150.593094,44.8442614 150.317381,45.1199753 149.983351,45.3067459 L135.6383,53.3277046 C135.382276,53.4708592 135.108914,53.5538066 134.834541,53.5811636 C134.488196,53.8439995 134.055591,54 133.586551,54 L117.07,54 C115.926771,54 115,53.0732294 115,51.93 L115,35.07 C115,33.9267706 115.926771,33 117.07,33 L133.586551,33 Z" id="arrow" fill="#0041FF" opacity="0.1"></path>
                <path d="M369.586551,68 C370.055591,68 370.488196,68.1560005 370.83531,68.4189468 C371.116205,68.4475918 371.389903,68.5334055 371.6383,68.6722954 L385.983351,76.6932541 C386.98119,77.25119 387.337801,78.5123941 386.779865,79.5102323 C386.593094,79.8442614 386.317381,80.1199753 385.983351,80.3067459 L371.6383,88.3277046 C371.382276,88.4708592 371.108914,88.5538066 370.834541,88.5811636 C370.488196,88.8439995 370.055591,89 369.586551,89 L353.07,89 C351.926771,89 351,88.0732294 351,86.93 L351,70.07 C351,68.9267706 351.926771,68 353.07,68 L369.586551,68 Z" id="arrow" fill="#0041FF" opacity="0.1"></path>
                <g id="Group-12" transform="translate(304.000000, 0.000000)" fill="#0041FF">
                    <rect id="drag" opacity="0.1" x="0" y="1.5" width="43.5" height="22.5"></rect>
                    <rect id="drag" opacity="0.5" x="39" y="0" width="3" height="22.5"></rect>
                    <text id="第-2-步" font-family="PingFangTC-Semibold, PingFang TC" font-size="9.75" font-weight="500">
                        <tspan x="3" y="16">第 2 步</tspan>
                    </text>
                </g>
                <path d="M177.841928,63 C178.517491,63 179.140899,63.2232985 179.642372,63.6001133 C180.053459,63.6375764 180.453791,63.7603937 180.817264,63.9613628 L201.459244,75.3745886 C202.909218,76.1762989 203.434741,78.0016503 202.63303,79.451625 C202.359959,79.9455019 201.953121,80.3523403 201.459244,80.6254114 L180.817264,92.0386372 C180.441034,92.2466597 180.039532,92.3653243 179.637196,92.4016675 C179.13759,92.7778854 178.515698,93 177.841928,93 L154,93 C152.343146,93 151,91.6568542 151,90 L151,66 C151,64.3431458 152.343146,63 154,63 L177.841928,63 Z" id="arrow" fill="#0041FF" opacity="0.1"></path>
                <path d="M322.556551,39 C323.039459,39 323.484297,39.1629994 323.839047,39.4369813 C324.134717,39.4635451 324.422534,39.5516509 324.682941,39.6972562 L338.936521,47.6670692 C339.948821,48.2330911 340.310601,49.5125735 339.744579,50.5248731 C339.555101,50.8637432 339.275392,51.143453 338.936521,51.3329304 L324.682941,59.3027434 C324.414632,59.4527671 324.127553,59.5376117 323.839964,59.5624402 C323.485134,59.8366938 323.039913,60 322.556551,60 L306.1,60 C304.940202,60 304,59.059798 304,57.9 L304,41.1 C304,39.940202 304.940202,39 306.1,39 L322.556551,39 Z" id="arrow-copy" fill="#0041FF" opacity="0.1"></path>
                <path d="M269.556551,58 C270.039459,58 270.484297,58.1629994 270.839047,58.4369813 C271.134717,58.4635451 271.422534,58.5516509 271.682941,58.6972562 L285.936521,66.6670692 C286.948821,67.2330911 287.310601,68.5125735 286.744579,69.5248731 C286.555101,69.8637432 286.275392,70.143453 285.936521,70.3329304 L271.682941,78.3027434 C271.414632,78.4527671 271.127553,78.5376117 270.839964,78.5624402 C270.485134,78.8366938 270.039913,79 269.556551,79 L253.1,79 C251.940202,79 251,78.059798 251,76.9 L251,60.1 C251,58.940202 251.940202,58 253.1,58 L269.556551,58 Z" id="arrow-copy-2" fill="#0041FF" opacity="0.1"></path>
                <g id="AECOM-partner" transform="translate(416.000000, 6.000000)">
                    <g id="top" transform="translate(26.147059, 63.647780) scale(-1, 1) translate(-26.147059, -63.647780) translate(0.147059, 36.147780)" fill="#0041FF" opacity="0.8">
                        <polygon id="Rectangle" transform="translate(34.358108, 27.220228) scale(-1, 1) translate(-34.358108, -27.220228) " points="17.6764706 10.8774113 29.2365484 0 51.1470588 54.4404566 17.569158 54.4404566"></polygon>
                        <polygon id="Rectangle" points="0.107312544 10.8774113 11.6673903 0 33.5779008 54.4404566 0 54.4404566"></polygon>
                    </g>
                    <g id="Oval">
                        <use fill="#FFFFFF" xlink:href="#path-5"></use>
                        <use fill-opacity="0.2" fill="#0041FF" xlink:href="#path-5"></use>
                    </g>
                    <g id="hair" transform="translate(11.000000, 0.000000)" fill="#0041FF">
                        <circle cx="15.5" cy="8.5" r="8.5"></circle>
                        <rect x="8" y="12" width="17" height="7"></rect>
                        <circle cx="7" cy="12" r="7"></circle>
                        <circle cx="25" cy="12" r="7"></circle>
                    </g>
                    <rect id="eye" fill="#0041FF" x="15" y="22" width="6" height="7" rx="3"></rect>
                    <rect id="eye" fill="#0041FF" x="33" y="22" width="6" height="7" rx="3"></rect>
                    <path d="M27.5510204,28 C28.9035545,28 30,29.0964455 30,30.4489796 L30,30.5510204 C30,31.9035545 28.9035545,33 27.5510204,33 L27.1157312,33 L27,32.996 L27,31.928 L27.5714445,31.9285714 C28.3140122,31.9285714 28.9242528,31.3620113 28.9934763,30.637581 L29.0000159,30.5 C29.0000159,29.7110218 28.3604227,29.0714286 27.5714445,29.0714286 L27.5714445,29.0714286 L27,29.071 L26.9997301,28.0026989 C27.0381722,28.0009063 27.0768459,28 27.1157312,28 L27.5510204,28 Z" id="nose" fill="#0041FF"></path>
                    <path d="M27.0003419,33.9996581 C28.1049114,33.9996581 29.0003419,34.8950886 29.0003419,35.9996581 L29.0003419,38.9996581 C29.0003419,40.1042276 28.1049114,40.9996581 27.0003419,40.9996581 L25.9996581,40.9996581 L25.9996581,39.9276581 L27.0003579,39.9282295 C27.5131937,39.9282295 27.935865,39.5421893 27.9936301,39.0448506 L28.0003579,38.9282295 L28.0003579,35.9282295 C28.0003579,35.3759447 27.5526426,34.9282295 27.0003579,34.9282295 L27.0003579,34.9282295 L25.9996581,34.9276581 L25.9996581,33.9996581 L27.0003419,33.9996581 Z" id="mouth" fill="#0041FF" transform="translate(27.500000, 37.499658) rotate(-270.000000) translate(-27.500000, -37.499658) "></path>
                </g>
            </g>
        </g>
    </g>
</svg>